<svg width="40" height="40" viewBox="0 0 40 40" fill="none" xmlns="http://www.w3.org/2000/svg">
<path d="M6.25003 5.5H33.75C34.4131 5.5 35.049 5.76339 35.5178 6.23223C35.9866 6.70107 36.25 7.33696 36.25 8V32.8125C36.2563 33.289 36.1238 33.7569 35.8685 34.1593C35.6132 34.5616 35.2463 34.8809 34.8125 35.0781C34.4803 35.2363 34.118 35.3216 33.75 35.3281C33.1603 35.3262 32.5903 35.1159 32.1407 34.7344L27.1719 30.5625L27.0157 30.5H6.25003C5.58699 30.5 4.9511 30.2366 4.48226 29.7678C4.01342 29.2989 3.75003 28.663 3.75003 28V8C3.75003 7.33696 4.01342 6.70107 4.48226 6.23223C4.9511 5.76339 5.58699 5.5 6.25003 5.5V5.5ZM6.25003 28H27.2344C27.3835 28.0019 27.5313 28.0283 27.6719 28.0781L28.25 28.2813C28.3846 28.3364 28.5108 28.41 28.625 28.5L33.75 32.8125V8H6.25003V28ZM26.25 15.5C26.25 15.1685 26.1183 14.8505 25.8839 14.6161C25.6495 14.3817 25.3315 14.25 25 14.25H15C14.6685 14.25 14.3506 14.3817 14.1161 14.6161C13.8817 14.8505 13.75 15.1685 13.75 15.5C13.75 15.8315 13.8817 16.1495 14.1161 16.3839C14.3506 16.6183 14.6685 16.75 15 16.75H25C25.3315 16.75 25.6495 16.6183 25.8839 16.3839C26.1183 16.1495 26.25 15.8315 26.25 15.5ZM26.25 20.5C26.25 20.1685 26.1183 19.8505 25.8839 19.6161C25.6495 19.3817 25.3315 19.25 25 19.25H15C14.6685 19.25 14.3506 19.3817 14.1161 19.6161C13.8817 19.8505 13.75 20.1685 13.75 20.5C13.75 20.8315 13.8817 21.1495 14.1161 21.3839C14.3506 21.6183 14.6685 21.75 15 21.75H25C25.3315 21.75 25.6495 21.6183 25.8839 21.3839C26.1183 21.1495 26.25 20.8315 26.25 20.5Z" fill="white"/>
</svg>
