<svg width="14" height="14" viewBox="0 0 14 14" fill="none" xmlns="http://www.w3.org/2000/svg">
<path fill-rule="evenodd" clip-rule="evenodd" d="M12.854 1.14599C12.9006 1.19244 12.9375 1.24761 12.9628 1.30836C12.988 1.36911 13.0009 1.43423 13.0009 1.49999C13.0009 1.56576 12.988 1.63088 12.9628 1.69163C12.9375 1.75237 12.9006 1.80755 12.854 1.85399L1.85404 12.854C1.76015 12.9479 1.63282 13.0006 1.50004 13.0006C1.36726 13.0006 1.23993 12.9479 1.14604 12.854C1.05215 12.7601 0.999408 12.6328 0.999408 12.5C0.999408 12.3672 1.05215 12.2399 1.14604 12.146L12.146 1.14599C12.1925 1.09943 12.2477 1.06249 12.3084 1.03728C12.3692 1.01207 12.4343 0.9991 12.5 0.9991C12.5658 0.9991 12.6309 1.01207 12.6917 1.03728C12.7524 1.06249 12.8076 1.09943 12.854 1.14599Z" fill="#2F3133"/>
<path fill-rule="evenodd" clip-rule="evenodd" d="M1.14604 1.14599C1.09948 1.19244 1.06253 1.24761 1.03733 1.30836C1.01212 1.36911 0.999146 1.43423 0.999146 1.49999C0.999146 1.56576 1.01212 1.63088 1.03733 1.69163C1.06253 1.75237 1.09948 1.80755 1.14604 1.85399L12.146 12.854C12.2399 12.9479 12.3673 13.0006 12.5 13.0006C12.6328 13.0006 12.7602 12.9479 12.854 12.854C12.9479 12.7601 13.0007 12.6328 13.0007 12.5C13.0007 12.3672 12.9479 12.2399 12.854 12.146L1.85404 1.14599C1.80759 1.09943 1.75242 1.06249 1.69167 1.03728C1.63093 1.01207 1.56581 0.9991 1.50004 0.9991C1.43427 0.9991 1.36915 1.01207 1.30841 1.03728C1.24766 1.06249 1.19248 1.09943 1.14604 1.14599Z" fill="#2F3133"/>
<path fill-rule="evenodd" clip-rule="evenodd" d="M12.854 1.14599C12.9006 1.19244 12.9375 1.24761 12.9628 1.30836C12.988 1.36911 13.0009 1.43423 13.0009 1.49999C13.0009 1.56576 12.988 1.63088 12.9628 1.69163C12.9375 1.75237 12.9006 1.80755 12.854 1.85399L1.85404 12.854C1.76015 12.9479 1.63282 13.0006 1.50004 13.0006C1.36726 13.0006 1.23993 12.9479 1.14604 12.854C1.05215 12.7601 0.999408 12.6328 0.999408 12.5C0.999408 12.3672 1.05215 12.2399 1.14604 12.146L12.146 1.14599C12.1925 1.09943 12.2477 1.06249 12.3084 1.03728C12.3692 1.01207 12.4343 0.9991 12.5 0.9991C12.5658 0.9991 12.6309 1.01207 12.6917 1.03728C12.7524 1.06249 12.8076 1.09943 12.854 1.14599Z" stroke="#2F3133" stroke-width="0.4"/>
<path fill-rule="evenodd" clip-rule="evenodd" d="M1.14604 1.14599C1.09948 1.19244 1.06253 1.24761 1.03733 1.30836C1.01212 1.36911 0.999146 1.43423 0.999146 1.49999C0.999146 1.56576 1.01212 1.63088 1.03733 1.69163C1.06253 1.75237 1.09948 1.80755 1.14604 1.85399L12.146 12.854C12.2399 12.9479 12.3673 13.0006 12.5 13.0006C12.6328 13.0006 12.7602 12.9479 12.854 12.854C12.9479 12.7601 13.0007 12.6328 13.0007 12.5C13.0007 12.3672 12.9479 12.2399 12.854 12.146L1.85404 1.14599C1.80759 1.09943 1.75242 1.06249 1.69167 1.03728C1.63093 1.01207 1.56581 0.9991 1.50004 0.9991C1.43427 0.9991 1.36915 1.01207 1.30841 1.03728C1.24766 1.06249 1.19248 1.09943 1.14604 1.14599Z" stroke="#2F3133" stroke-width="0.4"/>
</svg>
