<svg width="22" height="24" viewBox="0 0 22 24" fill="none" xmlns="http://www.w3.org/2000/svg">
<path d="M1.25 22.5C1.05109 22.5 0.860322 22.579 0.71967 22.7197C0.579018 22.8603 0.5 23.0511 0.5 23.25C0.5 23.4489 0.579018 23.6397 0.71967 23.7803C0.860322 23.921 1.05109 24 1.25 24H20.75C20.9489 24 21.1397 23.921 21.2803 23.7803C21.421 23.6397 21.5 23.4489 21.5 23.25C21.5 23.0511 21.421 22.8603 21.2803 22.7197C21.1397 22.579 20.9489 22.5 20.75 22.5H18.5V3.75001C18.5 3.15327 18.2629 2.58098 17.841 2.15902C17.419 1.73706 16.8467 1.50001 16.25 1.50001H15.5V0.750008C15.5 0.642655 15.4769 0.536555 15.4324 0.438882C15.3878 0.341209 15.3228 0.254238 15.2418 0.183847C15.1607 0.113457 15.0655 0.0612877 14.9625 0.030866C14.8596 0.000444268 14.7513 -0.00752103 14.645 0.00750849L4.145 1.50751C3.96608 1.53281 3.8023 1.62185 3.6838 1.75827C3.56529 1.89469 3.50003 2.06931 3.5 2.25001V22.5H1.25ZM15.5 3.00001H16.25C16.4489 3.00001 16.6397 3.07903 16.7803 3.21968C16.921 3.36033 17 3.5511 17 3.75001V22.5H15.5V3.00001ZM11.75 15C11.336 15 11 14.328 11 13.5C11 12.672 11.336 12 11.75 12C12.164 12 12.5 12.672 12.5 13.5C12.5 14.328 12.164 15 11.75 15Z" fill="white"/>
</svg>
