<svg width="310" height="237" viewBox="0 0 310 237" fill="none" xmlns="http://www.w3.org/2000/svg">
<path d="M283.067 233.56C283.067 234.88 241.305 235.946 189.849 235.946C138.392 235.946 96.6304 234.88 96.6304 233.56C96.6304 232.24 138.392 231.181 189.849 231.181C241.305 231.181 283.067 232.247 283.067 233.56Z" fill="#2E353A"/>
<path d="M209.314 12.394H121.726C118.999 12.394 116.789 14.6043 116.789 17.3309V51.5681C116.789 54.2946 118.999 56.5049 121.726 56.5049H209.314C212.04 56.5049 214.251 54.2946 214.251 51.5681V17.3309C214.251 14.6043 212.04 12.394 209.314 12.394Z" fill="#D7D3E1"/>
<path d="M116.789 48.7491V64.6708L125.671 54.4466" fill="#D7D3E1"/>
<path d="M209.321 12.394H121.703C121.055 12.394 120.414 12.5218 119.815 12.77C119.216 13.0182 118.673 13.3819 118.215 13.8405C117.757 14.299 117.394 14.8433 117.147 15.4422C116.899 16.0411 116.773 16.6829 116.774 17.3309V64.6708L123.873 56.5049H209.321C209.969 56.5049 210.61 56.3772 211.209 56.129C211.807 55.8808 212.351 55.517 212.809 55.0585C213.267 54.6 213.63 54.0557 213.877 53.4567C214.124 52.8578 214.251 52.216 214.25 51.5681V17.3309C214.251 16.6829 214.124 16.0411 213.877 15.4422C213.63 14.8433 213.267 14.299 212.809 13.8405C212.351 13.3819 211.807 13.0182 211.209 12.77C210.61 12.5218 209.969 12.394 209.321 12.394Z" fill="#D7D3E1"/>
<path opacity="0.1" d="M209.321 12.394H121.703C121.055 12.394 120.414 12.5218 119.815 12.77C119.216 13.0182 118.673 13.3819 118.215 13.8405C117.757 14.299 117.394 14.8433 117.147 15.4422C116.899 16.0411 116.773 16.6829 116.774 17.3309V64.6708L123.873 56.5049H209.321C209.969 56.5049 210.61 56.3772 211.209 56.129C211.807 55.8808 212.351 55.517 212.809 55.0585C213.267 54.6 213.63 54.0557 213.877 53.4567C214.124 52.8578 214.251 52.216 214.25 51.5681V17.3309C214.251 16.6829 214.124 16.0411 213.877 15.4422C213.63 14.8433 213.267 14.299 212.809 13.8405C212.351 13.3819 211.807 13.0182 211.209 12.77C210.61 12.5218 209.969 12.394 209.321 12.394Z" fill="#D7D3E1"/>
<path d="M191.803 36.5935H128.87C128.403 36.5935 127.955 36.4081 127.625 36.078C127.295 35.748 127.11 35.3003 127.11 34.8336C127.112 34.3681 127.298 33.9223 127.628 33.5939C127.958 33.2654 128.404 33.0811 128.87 33.0811H191.803C192.269 33.0811 192.715 33.2654 193.045 33.5939C193.375 33.9223 193.561 34.3681 193.563 34.8336C193.563 35.0647 193.518 35.2935 193.429 35.5071C193.341 35.7206 193.211 35.9146 193.048 36.078C192.884 36.2415 192.69 36.3711 192.477 36.4595C192.263 36.548 192.034 36.5935 191.803 36.5935Z" fill="white"/>
<path d="M191.803 44.6774H128.87C128.639 44.6774 128.41 44.6319 128.196 44.5434C127.983 44.455 127.789 44.3253 127.625 44.1619C127.462 43.9985 127.332 43.8045 127.244 43.5909C127.155 43.3774 127.11 43.1485 127.11 42.9174C127.112 42.4519 127.298 42.0062 127.628 41.6778C127.958 41.3493 128.404 41.1649 128.87 41.1649H191.803C192.269 41.1649 192.715 41.3493 193.045 41.6778C193.375 42.0062 193.561 42.4519 193.563 42.9174C193.563 43.1485 193.518 43.3774 193.429 43.5909C193.341 43.8045 193.211 43.9985 193.048 44.1619C192.884 44.3253 192.69 44.455 192.477 44.5434C192.263 44.6319 192.034 44.6774 191.803 44.6774Z" fill="white"/>
<path d="M132.383 28.5097C135.875 28.5097 138.706 25.6783 138.706 22.1857C138.706 18.6931 135.875 15.8618 132.383 15.8618C128.89 15.8618 126.059 18.6931 126.059 22.1857C126.059 25.6783 128.89 28.5097 132.383 28.5097Z" fill="white"/>
<path d="M209.313 72.0909H121.726C118.999 72.0909 116.789 74.3012 116.789 77.0278V111.265C116.789 113.992 118.999 116.202 121.726 116.202H209.313C212.04 116.202 214.25 113.992 214.25 111.265V77.0278C214.25 74.3012 212.04 72.0909 209.313 72.0909Z" fill="#D7D3E1"/>
<path d="M116.789 108.439V124.368L125.671 114.136" fill="#D7D3E1"/>
<path d="M209.321 72.0909H121.703C120.396 72.0909 119.142 72.6103 118.217 73.5347C117.293 74.4592 116.774 75.713 116.774 77.0203V124.368L123.873 116.165H209.321C210.628 116.165 211.882 115.645 212.806 114.721C213.731 113.796 214.25 112.542 214.25 111.235V77.0203C214.25 75.713 213.731 74.4592 212.806 73.5347C211.882 72.6103 210.628 72.0909 209.321 72.0909Z" fill="#D7D3E1"/>
<path opacity="0.1" d="M209.321 72.0909H121.703C120.396 72.0909 119.142 72.6103 118.217 73.5347C117.293 74.4592 116.774 75.713 116.774 77.0203V124.368L123.873 116.165H209.321C210.628 116.165 211.882 115.645 212.806 114.721C213.731 113.796 214.25 112.542 214.25 111.235V77.0203C214.25 75.713 213.731 74.4592 212.806 73.5347C211.882 72.6103 210.628 72.0909 209.321 72.0909Z" fill="#D7D3E1"/>
<path d="M191.803 96.283H128.87C128.404 96.283 127.958 96.0986 127.628 95.7701C127.298 95.4417 127.112 94.9959 127.11 94.5305C127.11 94.0637 127.295 93.616 127.625 93.286C127.955 92.9559 128.403 92.7705 128.87 92.7705H191.803C192.034 92.7705 192.263 92.816 192.477 92.9045C192.69 92.9929 192.884 93.1226 193.048 93.286C193.211 93.4494 193.341 93.6434 193.429 93.857C193.518 94.0705 193.563 94.2993 193.563 94.5305C193.561 94.9959 193.375 95.4417 193.045 95.7701C192.715 96.0986 192.269 96.283 191.803 96.283Z" fill="white"/>
<path d="M191.803 104.367H128.87C128.404 104.367 127.958 104.182 127.628 103.854C127.298 103.526 127.112 103.08 127.11 102.614C127.11 102.148 127.295 101.7 127.625 101.37C127.955 101.04 128.403 100.854 128.87 100.854H191.803C192.034 100.854 192.263 100.9 192.477 100.988C192.69 101.077 192.884 101.206 193.048 101.37C193.211 101.533 193.341 101.727 193.429 101.941C193.518 102.154 193.563 102.383 193.563 102.614C193.561 103.08 193.375 103.526 193.045 103.854C192.715 104.182 192.269 104.367 191.803 104.367Z" fill="white"/>
<path d="M132.383 88.1991C135.875 88.1991 138.706 85.3678 138.706 81.8752C138.706 78.3826 135.875 75.5513 132.383 75.5513C128.89 75.5513 126.059 78.3826 126.059 81.8752C126.059 85.3678 128.89 88.1991 132.383 88.1991Z" fill="white"/>
<path d="M49.1042 159.492C49.0371 159.492 48.7388 154.817 48.7537 154.518C48.9252 151.065 51.2967 144.488 55.0478 143.489C55.674 143.339 56.3247 143.323 56.9574 143.442C57.5902 143.561 58.1908 143.812 58.72 144.178C59.2492 144.545 59.6951 145.019 60.0287 145.57C60.3622 146.12 60.5759 146.735 60.6558 147.374C61.0883 150.074 59.3284 152.952 57.5461 154.832C55.4431 157.009 49.1042 159.492 49.1042 159.492Z" fill="#2E353A"/>
<path d="M44.2125 141.475C44.1454 141.475 44.5555 136.807 44.6152 136.508C45.3162 133.123 48.6571 126.978 52.5052 126.56C53.1469 126.508 53.7926 126.591 54.4001 126.804C55.0076 127.018 55.5634 127.357 56.0312 127.799C56.499 128.242 56.8684 128.778 57.1153 129.373C57.3623 129.967 57.4812 130.607 57.4644 131.251C57.4644 133.988 55.3092 136.568 53.2658 138.142C50.8571 139.991 44.2125 141.475 44.2125 141.475Z" fill="#2E353A"/>
<path d="M42.9751 120.214C42.9079 120.214 43.3256 115.546 43.3852 115.247C44.0788 111.862 47.4197 105.717 51.2752 105.299C51.9166 105.246 52.562 105.33 53.1691 105.543C53.7763 105.757 54.3316 106.096 54.7988 106.538C55.266 106.981 55.6347 107.517 55.8808 108.112C56.1269 108.707 56.2448 109.346 56.227 109.99C56.227 112.727 54.0792 115.299 52.0284 116.88C49.6196 118.73 42.9825 120.214 42.9751 120.214Z" fill="#2E353A"/>
<path d="M40.8335 100.206C40.7663 100.206 41.184 95.5298 41.2436 95.239C41.9372 91.8458 45.2781 85.7084 49.1336 85.2833C49.7754 85.2317 50.4209 85.3159 51.0281 85.5303C51.6352 85.7448 52.1904 86.0846 52.6575 86.5278C53.1246 86.971 53.4931 87.5076 53.7392 88.1026C53.9852 88.6976 54.1031 89.3378 54.0854 89.9815C54.0854 92.7109 51.9376 95.2912 49.8868 96.8647C47.478 98.7142 40.8409 100.206 40.8335 100.206Z" fill="#2E353A"/>
<path d="M34.4505 84.1498C34.3908 84.1498 33.5556 79.5485 33.5332 79.2502C33.3095 75.7974 34.9128 68.9888 38.5148 67.5718C39.1196 67.351 39.7642 67.2603 40.4064 67.3055C41.0487 67.3507 41.6742 67.5308 42.2421 67.8341C42.81 68.1374 43.3076 68.5571 43.7023 69.0658C44.0971 69.5744 44.3801 70.1606 44.533 70.786C45.2787 73.4185 43.8618 76.476 42.2957 78.5343C40.4761 80.958 34.4505 84.1498 34.4505 84.1498Z" fill="#2E353A"/>
<path d="M47.1278 159.545C47.2024 159.545 45.1665 155.286 45.0025 155.033C43.1605 152.11 37.8731 147.531 34.122 148.493C33.5036 148.669 32.9293 148.974 32.4366 149.388C31.9439 149.801 31.5438 150.314 31.2624 150.892C30.981 151.47 30.8245 152.101 30.8033 152.744C30.782 153.387 30.8964 154.027 31.1391 154.623C32.0787 157.196 35.0169 158.844 37.4928 159.597C40.4161 160.484 47.1278 159.545 47.1278 159.545Z" fill="#2E353A"/>
<path d="M43.213 139.066C43.2876 139.066 40.6253 135.159 40.4314 134.935C38.1942 132.317 32.2282 128.596 28.6859 130.11C28.0997 130.377 27.5766 130.766 27.1507 131.249C26.7247 131.732 26.4056 132.3 26.2142 132.915C26.0227 133.531 25.9632 134.179 26.0396 134.819C26.116 135.459 26.3266 136.075 26.6575 136.628C27.97 139.022 31.132 140.207 33.6899 140.58C36.6878 141.013 43.213 139.066 43.213 139.066Z" fill="#2E353A"/>
<path d="M42.0872 119.006C42.1543 119.006 39.4994 115.098 39.3056 114.874C37.0683 112.257 31.1023 108.536 27.5526 110.057C26.9601 110.323 26.4308 110.711 25.9995 111.196C25.5683 111.682 25.2451 112.253 25.0513 112.873C24.8574 113.492 24.7973 114.146 24.875 114.791C24.9526 115.435 25.1663 116.056 25.5018 116.612C26.8218 119.006 29.9763 120.192 32.5416 120.557C35.5619 120.96 42.0872 119.013 42.0872 119.006Z" fill="#2E353A"/>
<path d="M40.1554 100.601C40.23 100.601 37.5677 96.6932 37.3738 96.4695C35.1366 93.8519 29.1706 90.1306 25.6283 91.6445C25.0421 91.9119 24.519 92.3 24.093 92.7834C23.6671 93.2668 23.348 93.8346 23.1565 94.4498C22.9651 95.065 22.9056 95.7136 22.982 96.3534C23.0584 96.9931 23.2689 97.6095 23.5999 98.1623C24.9124 100.564 28.0743 101.742 30.6323 102.115C33.6302 102.547 40.1554 100.601 40.1554 100.601Z" fill="#2E353A"/>
<path d="M34.4953 84.7538C34.5624 84.7538 31.5123 81.1593 31.2737 80.9505C28.7381 78.6014 22.444 75.5513 19.0658 77.453C18.5112 77.7832 18.0326 78.2271 17.6616 78.7553C17.2905 79.2835 17.0354 79.8842 16.9128 80.518C16.7903 81.1518 16.8032 81.8044 16.9506 82.4328C17.098 83.0613 17.3766 83.6515 17.7682 84.1647C19.3417 86.4019 22.6081 87.2372 25.2257 87.3192C28.2235 87.4087 34.4953 84.7613 34.4953 84.7538Z" fill="#2E353A"/>
<path d="M26.359 71.6585C26.4261 71.6585 25.3522 67.0796 25.2553 66.7962C24.0845 63.5373 19.9083 57.9367 16.0304 58.0635C15.3877 58.1026 14.7604 58.2765 14.1893 58.574C13.6182 58.8716 13.1162 59.286 12.716 59.7904C12.3157 60.2948 12.0261 60.8778 11.8661 61.5016C11.706 62.1253 11.6791 62.7757 11.7871 63.4105C12.16 66.125 14.6732 68.3623 16.9253 69.63C19.5727 71.1215 26.3515 71.6585 26.359 71.6585Z" fill="#2E353A"/>
<path d="M55.6218 183.655C55.6218 183.655 54.8238 181.827 53.571 178.628C52.3181 175.429 50.588 170.813 48.7535 165.205C47.8362 162.401 46.904 159.343 45.9942 156.084C45.5318 154.444 45.1142 152.796 44.6593 151.028C44.4654 150.163 44.279 149.291 44.0851 148.411C43.8912 147.531 43.757 146.598 43.5929 145.681C43.0043 141.919 42.6233 138.127 42.4519 134.323C42.2655 130.453 42.1909 126.538 42.094 122.623C41.997 118.708 41.9001 114.807 41.5868 110.989C41.3137 107.25 40.7779 103.534 39.9835 99.87C39.1833 96.4575 38.0802 93.1232 36.6873 89.9068C35.4434 87.013 34.0315 84.1942 32.4589 81.465C31.0196 78.9071 29.5431 76.6624 28.2231 74.6787C26.9031 72.695 25.6652 71.0246 24.6286 69.6598C22.5554 66.9304 21.2578 65.4688 21.2578 65.4688C21.2578 65.4688 22.5852 66.908 24.7255 69.5853C25.7845 70.9351 27.0523 72.5683 28.4543 74.537C29.8563 76.5058 31.3478 78.7132 32.8467 81.2487C34.4996 83.9613 35.9936 86.7676 37.3212 89.6533C38.8087 92.8774 40.009 96.2263 40.9082 99.6612C41.7933 103.341 42.4188 107.079 42.78 110.847C43.1753 114.703 43.3766 118.626 43.5258 122.541C43.6749 126.456 43.8614 130.356 44.1298 134.182C44.3811 137.912 44.8342 141.627 45.4871 145.308C45.6735 146.196 45.7854 147.061 46.0166 147.941C46.2478 148.821 46.4417 149.686 46.6505 150.543C47.1128 152.177 47.5826 153.877 48.0748 155.465C49.0368 158.665 50.0287 161.67 50.9982 164.414C52.9222 169.933 54.7269 174.452 56.0469 177.599C57.3668 180.746 58.1797 182.491 58.1797 182.491C58.3026 182.814 58.2988 183.171 58.169 183.491C58.0392 183.81 57.7931 184.069 57.4802 184.215C57.1673 184.36 56.8108 184.382 56.4826 184.275C56.1544 184.168 55.8788 183.941 55.7113 183.64L55.6218 183.655Z" fill="#2E353A"/>
<path d="M73.1852 154.75C73.1181 154.75 74.1696 150.163 74.2665 149.88C75.415 146.621 79.5613 140.991 83.4317 141.095C84.0745 141.129 84.7028 141.299 85.2756 141.593C85.8484 141.886 86.3529 142.297 86.7561 142.799C87.1593 143.301 87.4523 143.882 87.6157 144.504C87.7792 145.127 87.8096 145.777 87.7049 146.412C87.3544 149.127 84.8561 151.386 82.6114 152.669C79.9417 154.175 73.23 154.75 73.1852 154.75Z" fill="#2E353A"/>
<path d="M73.6169 136.091C73.5498 136.091 75.2799 131.706 75.4216 131.445C77.0548 128.387 81.9991 123.451 85.8098 124.144C86.4402 124.276 87.0357 124.539 87.5576 124.916C88.0795 125.293 88.5161 125.776 88.839 126.334C89.1619 126.891 89.3639 127.51 89.4317 128.15C89.4996 128.79 89.4318 129.438 89.2328 130.05C88.4871 132.683 85.6607 134.525 83.2668 135.457C80.4106 136.546 73.6244 136.091 73.6169 136.091Z" fill="#2E353A"/>
<path d="M78.4499 115.352C78.3753 115.352 80.1054 110.967 80.2471 110.706C81.8803 107.656 86.832 102.719 90.6428 103.405C91.2733 103.538 91.8688 103.801 92.3906 104.18C92.9123 104.558 93.3484 105.041 93.6707 105.599C93.9929 106.157 94.194 106.777 94.2608 107.418C94.3276 108.059 94.2586 108.706 94.0583 109.319C93.3126 111.944 90.4862 113.793 88.0923 114.725C85.2734 115.814 78.4499 115.352 78.4499 115.352Z" fill="#2E353A"/>
<path d="M82.1115 95.5671C82.0369 95.5671 83.767 91.1896 83.9087 90.9211C85.5419 87.871 90.4936 82.9342 94.3044 83.6277C94.9347 83.7594 95.5301 84.0224 96.0518 84.3998C96.5734 84.7771 97.0097 85.2603 97.332 85.8176C97.6543 86.375 97.8554 86.9941 97.9223 87.6345C97.9891 88.2748 97.9202 88.9221 97.7199 89.534C96.9742 92.1665 94.1478 94.0085 91.754 94.9407C88.8903 96.0295 82.1115 95.5671 82.1115 95.5671Z" fill="#2E353A"/>
<path d="M80.5669 78.3479C80.4924 78.3479 81.0069 73.687 81.0741 73.3961C81.8198 70.0179 85.3099 63.9475 89.1729 63.6119C89.8153 63.5735 90.4587 63.6708 91.0611 63.8974C91.6635 64.124 92.2115 64.4748 92.6694 64.9271C93.1273 65.3794 93.4849 65.923 93.7189 66.5225C93.9529 67.1221 94.0581 67.7642 94.0277 68.4071C94.0277 71.144 91.7904 73.672 89.6874 75.2008C87.2414 76.9981 80.5669 78.3479 80.5669 78.3479Z" fill="#2E353A"/>
<path d="M71.3052 154.242C71.3723 154.242 70.6266 149.604 70.5595 149.32C69.6273 145.987 65.8613 140.096 61.9909 139.946C61.3465 139.939 60.7078 140.068 60.1165 140.324C59.5252 140.58 58.9944 140.958 58.5589 141.433C58.1234 141.908 57.7928 142.469 57.5888 143.08C57.3847 143.692 57.3118 144.339 57.3747 144.98C57.5462 147.71 59.8953 150.126 62.0505 151.55C64.5711 153.228 71.2978 154.242 71.3052 154.242Z" fill="#2E353A"/>
<path d="M73.3489 133.496C73.4235 133.496 71.9768 129.021 71.8574 128.738C70.4256 125.583 65.8094 120.333 61.9614 120.773C61.3238 120.864 60.7124 121.089 60.1672 121.432C59.622 121.775 59.1552 122.228 58.7971 122.764C58.439 123.299 58.1977 123.904 58.0889 124.539C57.9801 125.174 58.0062 125.824 58.1656 126.448C58.7472 129.118 61.4394 131.154 63.781 132.235C66.5179 133.511 73.3415 133.496 73.3489 133.496Z" fill="#2E353A"/>
<path d="M77.9725 113.942C78.0396 113.942 76.6003 109.468 76.481 109.184C75.0566 106.037 70.4405 100.787 66.5924 101.227C65.9525 101.317 65.3387 101.541 64.7914 101.884C64.2441 102.228 63.7755 102.683 63.4164 103.221C63.0573 103.758 62.8158 104.365 62.7077 105.002C62.5996 105.639 62.6273 106.292 62.7891 106.917C63.3782 109.595 66.0629 111.623 68.412 112.704C71.1638 113.957 77.965 113.942 77.9725 113.942Z" fill="#2E353A"/>
<path d="M81.3511 95.7312C81.4257 95.7312 79.979 91.2567 79.8596 90.9733C78.4278 87.8263 73.8191 82.5687 69.9636 83.0162C69.3262 83.1062 68.715 83.3296 68.1699 83.6718C67.6247 84.014 67.1578 84.4673 66.7996 85.0021C66.4414 85.5369 66.2 86.1412 66.0911 86.7756C65.9822 87.41 66.0084 88.0602 66.1677 88.6839C66.7494 91.3611 69.4416 93.3895 71.7907 94.4708C74.5425 95.7312 81.3511 95.7312 81.3511 95.7312Z" fill="#2E353A"/>
<path d="M80.4249 78.9444C80.4995 78.9444 78.5754 74.6414 78.4188 74.3804C76.6514 71.3974 71.4909 66.6918 67.7099 67.5568C67.086 67.7166 66.5028 68.0062 65.9984 68.4067C65.494 68.8072 65.0798 69.3096 64.7828 69.8811C64.4858 70.4526 64.3127 71.0803 64.2748 71.7232C64.2369 72.3662 64.3351 73.0099 64.5629 73.6123C65.4354 76.2 68.3289 77.9227 70.7824 78.743C73.661 79.705 80.4249 78.9444 80.4249 78.9444Z" fill="#2E353A"/>
<path d="M76.3534 64.0743C76.413 64.0743 76.689 59.3984 76.6666 59.1001C76.4727 55.6399 74.0639 49.0773 70.3128 48.1004C69.6855 47.9555 69.0347 47.9444 68.4028 48.0676C67.7709 48.1909 67.172 48.4458 66.6451 48.8159C66.1182 49.1859 65.6751 49.6627 65.3447 50.2152C65.0143 50.7678 64.8039 51.3838 64.7272 52.023C64.3096 54.7301 66.0845 57.5937 67.8817 59.4805C69.9922 61.6282 76.3459 64.0668 76.3534 64.0743Z" fill="#2E353A"/>
<path d="M72.5734 179.769C72.5734 179.769 72.3198 177.793 72.029 174.363C71.7381 170.932 71.3877 166.025 71.231 160.126C71.149 157.143 71.1192 153.981 71.1788 150.596C71.1788 148.895 71.2683 147.195 71.3354 145.375C71.3951 144.495 71.4622 143.601 71.5219 142.706C71.5815 141.811 71.7307 140.871 71.8276 139.946C72.3388 136.182 73.0533 132.448 73.9679 128.76C74.8852 124.994 75.9292 121.213 76.9509 117.44C77.9726 113.666 78.9793 109.893 79.7698 106.134C80.5703 102.473 81.1111 98.7601 81.3881 95.0227C81.58 91.5215 81.4602 88.0101 81.0301 84.5301C80.6618 81.4004 80.1089 78.2952 79.3746 75.2306C78.7183 72.367 77.9502 69.7941 77.2492 67.5196C76.5482 65.2451 75.8248 63.2838 75.2282 61.6879C74.0127 58.4812 73.1849 56.7063 73.1849 56.7063C73.1849 56.7063 74.05 58.4663 75.3326 61.6431C75.974 63.2316 76.7123 65.178 77.4879 67.4376C78.2634 69.6972 79.0688 72.27 79.7847 75.1262C80.5899 78.1943 81.2149 81.3069 81.6566 84.448C82.1698 87.9632 82.3694 91.517 82.2532 95.0675C82.0539 98.8591 81.5879 102.632 80.8586 106.358C80.1129 110.161 79.218 113.98 78.2709 117.783C77.3238 121.586 76.3692 125.375 75.5415 129.118C74.7194 132.766 74.097 136.455 73.6771 140.17C73.6025 141.073 73.4683 141.93 73.4384 142.84C73.4086 143.75 73.349 144.637 73.3042 145.517C73.3042 147.217 73.252 148.977 73.3042 150.64C73.3042 153.989 73.4161 157.151 73.5652 160.067C73.8411 165.906 74.311 170.761 74.6615 174.139C75.012 177.517 75.3103 179.441 75.3103 179.441C75.3362 179.618 75.3271 179.798 75.2834 179.971C75.2398 180.145 75.1624 180.307 75.0558 180.451C74.9491 180.594 74.8153 180.715 74.6619 180.807C74.5085 180.898 74.3386 180.959 74.1618 180.985C73.9851 181.011 73.8049 181.002 73.6317 180.958C73.4584 180.914 73.2955 180.837 73.1521 180.73C73.0088 180.624 72.8878 180.49 72.7962 180.336C72.7046 180.183 72.6441 180.013 72.6181 179.836V179.799L72.5734 179.769Z" fill="#2E353A"/>
<path d="M81.2238 229.078H49.6489L40.7671 177.368H90.1056L81.2238 229.078Z" fill="#2E353A"/>
<path d="M136.842 233.97C174.762 233.97 205.503 203.23 205.503 165.309C205.503 127.389 174.762 96.6484 136.842 96.6484C98.9216 96.6484 68.1812 127.389 68.1812 165.309C68.1812 203.23 98.9216 233.97 136.842 233.97Z" fill="#D7D3E1"/>
<path d="M136.842 234.313C123.194 234.313 109.853 230.266 98.505 222.684C87.1574 215.102 78.313 204.325 73.0903 191.716C67.8675 179.107 66.501 165.233 69.1636 151.847C71.8261 138.462 78.3981 126.166 88.0484 116.516C97.6988 106.866 109.994 100.294 123.38 97.6312C136.765 94.9687 150.639 96.3352 163.248 101.558C175.857 106.781 186.634 115.625 194.216 126.973C201.798 138.32 205.845 151.661 205.845 165.309C205.824 183.603 198.547 201.142 185.611 214.078C172.675 227.014 155.136 234.291 136.842 234.313ZM136.842 96.9839C123.328 96.9839 110.118 100.991 98.8821 108.499C87.646 116.007 78.8886 126.677 73.7173 139.162C68.5459 151.647 67.1928 165.385 69.8292 178.639C72.4655 191.893 78.9728 204.067 88.5283 213.622C98.0838 223.178 110.258 229.685 123.512 232.322C136.766 234.958 150.504 233.605 162.988 228.433C175.473 223.262 186.144 214.505 193.652 203.269C201.16 192.033 205.167 178.823 205.167 165.309C205.149 147.194 197.945 129.825 185.135 117.016C172.326 104.206 154.957 97.0017 136.842 96.9839Z" fill="#2E353A"/>
<path d="M118.653 210.464C112.844 208.321 107.521 205.043 102.992 200.822C98.4234 196.43 94.8835 191.082 92.6261 185.161C90.0662 178.522 88.7981 171.455 88.8899 164.34C88.8409 158.265 89.9128 152.233 92.0519 146.546C93.9857 141.33 96.8822 136.524 100.591 132.377C107.919 124.342 117.396 118.573 127.9 115.754C133.054 114.372 138.366 113.67 143.702 113.666C148.13 113.65 152.543 114.176 156.842 115.232C160.997 116.261 164.974 117.907 168.64 120.117C172.263 122.298 175.509 125.05 178.253 128.268C181.124 131.725 183.312 135.696 184.703 139.969C186.314 144.833 187.108 149.931 187.052 155.055C186.997 164.913 183.466 174.435 177.082 181.947C174.322 185.099 171.043 187.755 167.387 189.8C164.241 191.624 160.68 192.615 157.044 192.678C154.547 192.708 152.11 191.923 150.101 190.441C149.087 189.696 148.261 188.724 147.69 187.602C147.119 186.481 146.818 185.241 146.812 183.983C142.556 189.979 136.799 192.976 129.541 192.976C123.629 192.976 118.906 190.955 115.371 186.914C111.837 182.872 110.077 177.9 110.091 171.999C110.107 167.509 110.889 163.055 112.403 158.829C113.885 154.555 116.007 150.532 118.697 146.897C121.368 143.312 124.778 140.344 128.698 138.194C132.606 135.986 137.021 134.83 141.51 134.838C144.629 134.806 147.705 135.558 150.459 137.023C153.141 138.446 155.317 140.666 156.686 143.377L157.267 141.483C157.533 140.687 157.983 139.965 158.581 139.377C159.179 138.788 159.907 138.349 160.707 138.095C161.507 137.842 162.355 137.78 163.183 137.917C164.011 138.053 164.795 138.383 165.471 138.88C165.902 139.232 166.244 139.681 166.47 140.19C166.695 140.699 166.797 141.255 166.768 141.811C166.769 142.344 166.681 142.873 166.507 143.377L157.252 174.139C156.208 177.659 155.686 180.073 155.686 181.38C155.686 183.597 156.817 184.704 159.08 184.699C162.033 184.699 164.934 183.341 167.782 180.627C170.852 177.564 173.221 173.873 174.725 169.806C176.497 165.358 177.403 160.612 177.395 155.823C177.438 151.605 176.822 147.405 175.568 143.377C174.528 139.903 172.868 136.647 170.668 133.764C168.58 131.138 166.058 128.888 163.211 127.112C160.369 125.322 157.267 123.982 154.016 123.137C150.685 122.269 147.256 121.83 143.814 121.832C139.437 121.838 135.083 122.453 130.875 123.659C126.556 124.895 122.439 126.752 118.653 129.17C114.834 131.582 111.377 134.522 108.384 137.903C105.297 141.464 102.89 145.561 101.284 149.992C99.4984 154.822 98.604 159.936 98.6443 165.086C98.5474 171.186 99.6548 177.245 101.903 182.916C103.822 187.835 106.87 192.233 110.8 195.758C114.589 199.055 118.966 201.608 123.701 203.283C128.693 205.05 133.955 205.933 139.25 205.893C144.911 205.903 150.539 205.045 155.94 203.35C156.485 203.166 157.058 203.077 157.633 203.089C158.18 203.066 158.725 203.163 159.231 203.372C159.737 203.58 160.191 203.896 160.564 204.297C161.279 205.04 161.677 206.032 161.675 207.064C161.745 207.893 161.513 208.721 161.021 209.392C160.529 210.064 159.81 210.535 158.997 210.718C152.257 212.78 145.254 213.855 138.206 213.91C131.533 213.959 124.907 212.792 118.653 210.464ZM142.218 180.873C145.03 178.844 147.12 175.97 148.184 172.67L154.15 151.684L153.755 150.834C153.376 150.143 152.918 149.497 152.39 148.91C151.677 148.091 150.902 147.328 150.071 146.628C149.004 145.769 147.791 145.107 146.491 144.674C143.115 143.479 139.411 143.607 136.125 145.032C134.339 145.802 132.697 146.872 131.271 148.194C129.782 149.581 128.458 151.135 127.326 152.825C126.143 154.575 125.144 156.442 124.343 158.396C123.54 160.343 122.918 162.361 122.486 164.422C122.059 166.382 121.839 168.382 121.83 170.388C121.822 171.674 121.899 172.96 122.061 174.236C122.199 175.366 122.449 176.48 122.806 177.562C123.122 178.541 123.571 179.472 124.141 180.329C124.667 181.121 125.329 181.816 126.095 182.379C126.911 182.975 127.828 183.418 128.802 183.684C129.948 184.003 131.133 184.156 132.322 184.139C135.892 184.178 139.373 183.029 142.218 180.873Z" fill="#2E353A"/>
<path d="M230.217 107.566C230.217 107.566 227.979 111.727 227.651 112.309C227.323 112.891 226.123 116.038 226.48 116.784C226.838 117.529 227.182 117.954 227.89 118.074C228.598 118.193 229.18 119.483 230.351 119.714C231.088 119.86 231.837 119.94 232.588 119.953C232.772 120.088 232.985 120.18 233.21 120.22C233.435 120.26 233.666 120.248 233.886 120.184C234.587 119.953 235.176 119.602 235.646 117.604C235.933 116.614 236.011 115.576 235.877 114.554L235.668 110.519L230.217 107.566Z" fill="white"/>
<path d="M233.468 120.617C233.114 120.612 232.768 120.509 232.469 120.318C231.733 120.298 230.999 120.216 230.277 120.072C229.606 119.89 229.006 119.51 228.554 118.983C228.353 118.743 228.097 118.554 227.808 118.432C227.425 118.346 227.07 118.164 226.776 117.903C226.482 117.642 226.26 117.311 226.13 116.94C225.645 115.978 227.055 112.555 227.316 112.123C227.659 111.548 229.851 107.432 229.874 107.387C229.923 107.301 230.003 107.237 230.098 107.208C230.189 107.172 230.29 107.172 230.381 107.208L235.825 110.154C235.881 110.186 235.928 110.231 235.961 110.286C235.995 110.341 236.015 110.403 236.019 110.467L236.228 114.494C236.364 115.551 236.28 116.625 235.981 117.649C235.519 119.64 234.915 120.192 233.975 120.505C233.813 120.569 233.642 120.606 233.468 120.617ZM230.373 108.073C229.837 109.073 228.27 112.003 227.972 112.503C227.562 113.182 226.578 116.142 226.809 116.605C227.182 117.35 227.465 117.619 227.95 117.701C228.391 117.831 228.783 118.091 229.076 118.447C229.428 118.871 229.898 119.182 230.426 119.341C231.136 119.479 231.857 119.556 232.581 119.573C232.667 119.573 232.751 119.601 232.82 119.655C232.953 119.752 233.107 119.818 233.27 119.847C233.432 119.877 233.6 119.87 233.759 119.826C234.274 119.655 234.811 119.476 235.251 117.514C235.521 116.575 235.6 115.591 235.482 114.621L235.28 110.743L230.373 108.073Z" fill="#2E353A"/>
<path d="M243.147 219.615C243.147 219.615 239.962 224.797 239.962 226.05C239.962 227.303 244.347 229.608 246.227 230.443C248.106 231.278 251.447 231.934 254.161 232.322C256.876 232.71 262.514 233.814 260.873 231.696C259.232 229.578 249.15 223.999 248.732 223.336C248.215 222.716 247.635 222.151 247.002 221.65L243.147 219.615Z" fill="white"/>
<path d="M259.517 233.321C257.925 233.257 256.34 233.08 254.774 232.792L254.103 232.687C250.314 232.106 247.615 231.464 246.078 230.778C245.81 230.659 239.59 227.877 239.59 226.05C239.59 224.73 242.499 219.957 242.827 219.413C242.878 219.334 242.956 219.276 243.047 219.251C243.138 219.226 243.235 219.236 243.319 219.279L247.175 221.322C247.867 221.852 248.495 222.46 249.046 223.134C249.225 223.343 250.866 224.372 252.454 225.372C255.84 227.482 260.046 230.115 261.135 231.472C261.53 231.964 261.627 232.389 261.418 232.74C261.21 233.09 260.553 233.321 259.517 233.321ZM243.259 220.107C242.051 222.105 240.314 225.26 240.314 226.073C240.314 226.885 243.506 228.854 246.354 230.122C247.846 230.778 250.471 231.397 254.2 231.971L254.863 232.076C256.235 232.292 260.412 232.956 260.755 232.374C260.755 232.374 260.755 232.225 260.531 231.949C259.524 230.689 255.199 227.982 252.037 225.983C249.494 224.395 248.584 223.813 248.398 223.537C247.903 222.947 247.348 222.409 246.742 221.934L243.259 220.107Z" fill="#2E353A"/>
<path d="M248.137 227.78L249.256 229.451C250.459 231.276 252.093 232.777 254.014 233.821C256.997 235.432 261.59 237.274 265.603 236.17C272.18 234.358 255.624 224.372 255.624 224.372C255.624 224.372 249.726 228.474 248.137 227.78Z" fill="white"/>
<path d="M262.991 236.878C259.68 236.878 256.28 235.491 253.834 234.149C251.862 233.079 250.183 231.543 248.942 229.674L247.823 227.997C247.776 227.933 247.751 227.856 247.751 227.777C247.751 227.697 247.776 227.62 247.823 227.557C247.876 227.494 247.947 227.451 248.026 227.432C248.105 227.413 248.188 227.42 248.263 227.452C249.225 227.87 253.006 225.73 255.385 224.081C255.444 224.041 255.514 224.019 255.586 224.019C255.658 224.019 255.728 224.041 255.788 224.081C257.033 224.827 267.951 231.539 267.481 234.939C267.376 235.685 266.735 236.252 265.676 236.55C264.8 236.779 263.897 236.89 262.991 236.878ZM248.867 228.198L249.561 229.249C250.733 231.019 252.32 232.476 254.184 233.493C257.227 235.133 261.642 236.871 265.505 235.812C266.668 235.484 266.743 234.977 266.765 234.813C267.101 232.374 259.032 226.893 255.631 224.82C254.445 225.61 250.881 227.959 248.867 228.198Z" fill="#2E353A"/>
<path d="M250.031 228.571C251.843 231.312 254.588 233.302 257.757 234.171C263.164 235.715 264.715 235.327 265.871 233.784" fill="white"/>
<path d="M262.917 235.529C261.129 235.427 259.361 235.091 257.66 234.529C254.391 233.647 251.562 231.592 249.71 228.757C249.685 228.715 249.669 228.669 249.662 228.62C249.655 228.572 249.658 228.523 249.67 228.475C249.683 228.428 249.705 228.384 249.734 228.345C249.764 228.306 249.802 228.274 249.845 228.25C249.931 228.201 250.033 228.187 250.129 228.212C250.225 228.237 250.308 228.299 250.359 228.384C252.132 231.031 254.793 232.957 257.861 233.813C263.134 235.305 264.573 234.932 265.572 233.56C265.633 233.482 265.721 233.431 265.818 233.417C265.916 233.404 266.015 233.428 266.094 233.485C266.173 233.545 266.226 233.633 266.24 233.731C266.254 233.829 266.228 233.928 266.169 234.007C265.804 234.519 265.312 234.928 264.743 235.195C264.173 235.461 263.545 235.576 262.917 235.529Z" fill="#2E353A"/>
<path d="M240.373 225.096C240.373 225.096 246.339 229.369 249.255 229.451L240.373 225.096Z" fill="white"/>
<path d="M249.225 229.824C246.243 229.742 240.388 225.573 240.142 225.401C240.064 225.342 240.011 225.254 239.996 225.157C239.981 225.06 240.004 224.96 240.06 224.879C240.088 224.839 240.123 224.805 240.164 224.779C240.205 224.753 240.251 224.735 240.299 224.726C240.347 224.718 240.396 224.719 240.443 224.73C240.491 224.741 240.535 224.761 240.575 224.79C240.635 224.835 246.489 229.003 249.248 229.078C249.347 229.082 249.442 229.125 249.51 229.197C249.578 229.27 249.615 229.366 249.613 229.466C249.611 229.515 249.6 229.563 249.579 229.607C249.559 229.652 249.53 229.692 249.494 229.725C249.458 229.758 249.415 229.784 249.369 229.801C249.323 229.818 249.274 229.826 249.225 229.824Z" fill="#2E353A"/>
<path d="M227.419 108.998C227.419 108.998 232.714 117.775 233.848 119.811C234.981 121.847 249.27 138.186 254.937 152.251C260.605 166.316 266.056 179.009 265.825 183.095C265.594 187.182 246.988 221.65 246.988 221.65L243.132 219.614C243.132 219.614 249.024 187.174 248.352 183.774C247.681 180.373 226.853 146.576 226.853 146.576C226.853 146.576 217.098 139.775 213.019 131.833" fill="#2E353A"/>
<path d="M228.173 130.93C228.173 130.93 225.227 137.277 225.227 138.186C225.227 139.096 241.783 187.861 246.548 198.972C249.565 206.09 252.213 213.358 254.483 220.748C254.483 220.748 256.303 222.985 254.938 225.282C253.573 227.579 248.137 229.138 247.003 227.094C245.87 225.051 234.751 214.417 229.993 203.737C225.235 193.058 218.426 174.929 214.563 168.128C209.475 159.42 204.932 150.404 200.961 141.132C195.964 129.342 190.826 116.56 190.826 116.56C197.56 117.123 204.34 116.363 210.782 114.323C221.223 110.922 225.697 104.412 225.697 104.412C225.697 104.412 228.352 111.198 229.031 112.51" fill="#2E353A"/>
<path d="M229.732 150.081C229.68 150.08 229.63 150.064 229.587 150.035C229.545 150.006 229.512 149.965 229.493 149.917L224.273 136.344C224.255 136.294 224.252 136.239 224.265 136.188C224.279 136.136 224.307 136.089 224.347 136.054L230.194 131.042C230.244 130.996 230.309 130.97 230.377 130.97C230.444 130.97 230.51 130.996 230.559 131.042C230.605 131.091 230.63 131.155 230.63 131.221C230.63 131.288 230.605 131.352 230.559 131.4L224.847 136.3L230 149.723C230.025 149.787 230.024 149.857 229.997 149.92C229.971 149.982 229.921 150.032 229.858 150.059L229.732 150.081Z" fill="white"/>
<path d="M224.504 136.501C224.44 136.502 224.378 136.478 224.332 136.434C224.306 136.41 224.286 136.381 224.272 136.349C224.257 136.317 224.25 136.283 224.25 136.247C224.25 136.21 224.25 132.116 222.416 129.536C221.961 128.872 221.595 128.35 221.29 127.925C220.335 126.568 220.044 126.158 219.873 125.479C219.754 124.685 219.754 123.879 219.873 123.085C219.885 123.019 219.922 122.96 219.976 122.92C220.03 122.88 220.097 122.862 220.163 122.869C220.197 122.873 220.229 122.885 220.258 122.902C220.287 122.919 220.313 122.942 220.333 122.969C220.353 122.996 220.367 123.027 220.375 123.059C220.384 123.092 220.385 123.126 220.38 123.16C220.274 123.889 220.274 124.63 220.38 125.36C220.529 125.941 220.782 126.299 221.722 127.634C222.02 128.059 222.393 128.581 222.848 129.245C224.504 131.624 224.735 135.039 224.772 136.016L235.369 135.606C235.437 135.606 235.502 135.631 235.552 135.677C235.601 135.722 235.632 135.785 235.638 135.852C235.64 135.886 235.635 135.919 235.623 135.951C235.612 135.983 235.594 136.012 235.571 136.036C235.548 136.06 235.52 136.08 235.489 136.093C235.458 136.106 235.425 136.113 235.392 136.113L224.534 136.531L224.504 136.501Z" fill="white"/>
<path d="M260.017 184.781C255.296 184.781 249.3 181.723 249.032 181.589C248.972 181.557 248.928 181.503 248.908 181.439C248.889 181.375 248.896 181.305 248.927 181.246C248.942 181.216 248.963 181.189 248.989 181.167C249.014 181.145 249.044 181.129 249.075 181.118C249.107 181.108 249.141 181.104 249.174 181.107C249.208 181.109 249.241 181.119 249.27 181.134C249.337 181.171 256.154 184.646 260.822 184.236C260.856 184.233 260.89 184.237 260.922 184.247C260.955 184.258 260.985 184.275 261.011 184.297C261.036 184.319 261.057 184.347 261.072 184.377C261.087 184.408 261.096 184.441 261.098 184.475C261.101 184.508 261.097 184.542 261.087 184.574C261.077 184.606 261.061 184.635 261.04 184.661C261.018 184.687 260.992 184.708 260.962 184.723C260.932 184.739 260.9 184.748 260.867 184.751C260.591 184.773 260.307 184.781 260.017 184.781Z" fill="white"/>
<path d="M259.383 188.718H259.323C255.14 187.667 250.442 183.819 250.24 183.655C250.195 183.606 250.169 183.542 250.169 183.476C250.169 183.409 250.195 183.345 250.24 183.297C250.261 183.271 250.287 183.249 250.317 183.233C250.346 183.217 250.378 183.207 250.411 183.204C250.445 183.2 250.478 183.203 250.51 183.213C250.542 183.222 250.572 183.238 250.598 183.259C250.643 183.297 255.408 187.204 259.48 188.219C259.512 188.227 259.543 188.242 259.569 188.263C259.596 188.283 259.618 188.309 259.635 188.338C259.652 188.367 259.662 188.399 259.666 188.432C259.671 188.466 259.668 188.499 259.659 188.532C259.645 188.592 259.608 188.644 259.557 188.679C259.506 188.713 259.444 188.727 259.383 188.718Z" fill="white"/>
<path d="M224.295 132.534C224.255 132.534 224.215 132.524 224.178 132.506C224.142 132.488 224.111 132.462 224.086 132.429C224.067 132.402 224.053 132.37 224.046 132.337C224.038 132.304 224.038 132.269 224.044 132.236C224.05 132.203 224.063 132.171 224.082 132.143C224.101 132.114 224.125 132.09 224.153 132.071C225.16 131.37 226.756 130.02 226.756 129.357C226.756 128.917 226.212 128.395 225.63 127.865C224.986 127.328 224.454 126.669 224.064 125.926C223.684 125.039 222.319 121.556 222.572 120.706C222.583 120.674 222.599 120.645 222.621 120.619C222.642 120.594 222.669 120.573 222.699 120.557C222.728 120.542 222.761 120.533 222.794 120.53C222.828 120.528 222.861 120.532 222.893 120.542C222.958 120.564 223.012 120.611 223.043 120.672C223.073 120.734 223.078 120.805 223.057 120.87C222.901 121.325 223.713 123.853 224.511 125.703C224.876 126.377 225.367 126.974 225.958 127.463C226.652 128.126 227.248 128.693 227.248 129.349C227.248 130.498 224.713 132.28 224.422 132.481C224.385 132.51 224.341 132.528 224.295 132.534Z" fill="white"/>
<path d="M199.447 133.995C199.393 133.998 199.34 133.983 199.295 133.952C199.25 133.922 199.216 133.879 199.198 133.828C199.18 133.777 199.178 133.722 199.193 133.67C199.208 133.619 199.24 133.573 199.283 133.541L201.371 131.87C203.377 130.274 204.615 126.195 204.63 126.15C204.65 126.085 204.695 126.031 204.755 125.999C204.815 125.967 204.885 125.96 204.95 125.979C205.015 125.999 205.069 126.044 205.101 126.104C205.133 126.164 205.14 126.234 205.122 126.299C205.07 126.471 203.817 130.572 201.691 132.265L199.603 133.936C199.56 133.973 199.504 133.994 199.447 133.995Z" fill="white"/>
<path d="M249.024 228.109C248.987 228.107 248.95 228.098 248.917 228.081C248.883 228.064 248.854 228.041 248.83 228.012C246.16 224.739 243.749 221.263 241.619 217.616C238.733 212.455 230.433 198.338 230.343 198.226C229.574 196.528 229.004 194.746 228.643 192.917C228.591 192.633 228.553 192.372 228.516 192.171C228.24 190.292 228.121 189.516 225.623 187.905C223.124 186.295 222.968 183.491 222.759 180.485C222.714 179.777 222.662 179.046 222.58 178.323C222.244 175.34 214.325 161.916 208.545 152.162C207.232 149.925 206.039 147.926 205.07 146.263C199.894 137.359 196.315 125.651 196.277 125.531C196.259 125.466 196.266 125.396 196.298 125.336C196.33 125.276 196.384 125.231 196.449 125.211C196.481 125.2 196.514 125.197 196.548 125.2C196.581 125.203 196.613 125.213 196.642 125.229C196.672 125.245 196.697 125.267 196.718 125.293C196.739 125.319 196.754 125.35 196.762 125.382C196.799 125.501 200.364 137.157 205.51 146.002C206.479 147.665 207.672 149.686 208.985 151.901C214.794 161.707 222.744 175.146 223.087 178.263C223.169 179.009 223.221 179.754 223.273 180.455C223.475 183.438 223.646 186.034 225.898 187.48C228.591 189.21 228.725 190.113 229.023 192.089C229.023 192.335 229.098 192.589 229.142 192.872C229.497 194.647 230.052 196.376 230.798 198.025C230.865 198.152 239.173 212.269 242.066 217.415C244.183 221.032 246.577 224.48 249.225 227.728C249.247 227.754 249.262 227.784 249.272 227.816C249.282 227.848 249.285 227.882 249.281 227.915C249.278 227.948 249.268 227.98 249.252 228.01C249.236 228.039 249.214 228.065 249.188 228.086C249.137 228.111 249.08 228.119 249.024 228.109Z" fill="white"/>
<path d="M190.826 116.56C190.826 116.56 191.303 121.84 193.392 123.51C195.48 125.181 201.744 126.642 210.305 125.002C218.866 123.361 228.263 116.053 229.098 113.517C229.933 110.982 225.682 104.419 225.682 104.419C225.682 104.419 220.745 111.429 206.964 113.726C193.183 116.023 190.826 116.56 190.826 116.56Z" fill="white"/>
<path d="M203.049 126.083C198.001 126.083 194.54 124.912 193.153 123.801C190.968 122.049 190.476 116.821 190.454 116.597C190.446 116.508 190.47 116.419 190.522 116.347C190.574 116.274 190.65 116.223 190.737 116.202C190.834 116.202 193.265 115.598 206.905 113.323C220.328 111.086 225.325 104.24 225.377 104.173C225.412 104.125 225.458 104.085 225.511 104.058C225.564 104.031 225.623 104.017 225.683 104.016C225.744 104.018 225.804 104.034 225.857 104.064C225.91 104.094 225.955 104.136 225.988 104.188C226.436 104.874 230.314 111.004 229.449 113.607C228.531 116.351 218.919 123.667 210.372 125.337C207.961 125.82 205.509 126.07 203.049 126.083ZM191.237 116.858C191.378 118.007 191.982 121.899 193.623 123.219C195.487 124.711 201.461 126.322 210.231 124.606C218.852 122.921 228.002 115.605 228.748 113.368C229.337 111.593 226.928 107.111 225.645 105.038C224.318 106.626 218.993 112.07 207.002 114.062C195.95 115.911 192.236 116.612 191.237 116.858Z" fill="#2E353A"/>
<path d="M245.869 65.3792C242.461 63.142 215.927 42.4699 213.429 41.5601C210.931 40.6503 205.971 41.5601 205.971 41.5601C205.971 41.5601 190.594 43.4394 187.373 44.737C187.067 44.8563 180.139 48.8386 179.915 49.0474C177.417 51.0907 166.492 56.1171 163.553 62.4708C160.22 69.6598 189.513 112.943 190.878 116.567C192.242 120.192 199.394 121.086 205.971 120.177C212.549 119.267 218.321 117.939 223.086 112.488C223.95 111.402 224.674 110.212 225.242 108.946C225.922 107.531 226.096 105.925 225.734 104.397C224.033 97.3121 219.693 76.8861 216.83 63.3806C221.602 66.4606 231.528 72.7174 237.3 74.9248C245.011 77.9078 250.91 75.8346 250.91 73.3363C250.91 70.8381 249.269 67.6463 245.869 65.3792Z" fill="white"/>
<path d="M236.66 69.7867C232.113 69.338 227.709 67.9489 223.728 65.7075C223.728 65.7075 229.627 62.9855 229.851 61.6208C230.075 60.2561 221.685 61.3971 222.818 60.9422C223.952 60.4873 225.54 59.3537 222.818 59.3537C220.648 59.211 218.511 58.7538 216.472 57.9965L216.778 63.3584C219.373 65.0363 223.49 67.639 227.621 70.0253C231.507 72.0683 235.508 73.8836 239.605 75.4618C239.605 75.4618 244.594 70.6965 236.66 69.7867Z" fill="#D7D3E1"/>
<g style="mix-blend-mode:multiply">
<path d="M205.92 120.169L206.763 120.05C208.583 119.17 211.662 118.618 214.66 117.872C219.195 116.739 214.205 116.739 206.718 112.883C199.231 109.028 196.278 103.36 189.477 95.1942C182.675 87.0283 179.953 82.9416 181.318 82.0393C182.683 81.1369 178.596 81.1295 177.008 80.2197C175.419 79.3098 179.245 79.3173 182.452 76.1404C185.658 72.9635 176.322 76.8191 175.419 76.5953C174.517 76.3716 176.322 73.4185 176.322 73.4185L169.744 80.2197L185.621 107.439L186.531 108.118L187.575 109.61L190.558 116.023C190.677 116.247 190.759 116.433 190.811 116.56C192.184 120.192 199.343 121.087 205.92 120.169Z" fill="#D7D3E1"/>
</g>
<path d="M175.852 56.751C180.871 56.0053 194.861 63.9848 194.861 63.9848C187.173 58.7645 180.446 53.8724 175.845 51.665L167.366 57.631L166.784 58.1754C167.768 57.9815 171.542 57.3625 175.852 56.751Z" fill="#D7D3E1"/>
<path opacity="0.5" d="M236.66 69.7867C232.113 69.338 227.709 67.9489 223.728 65.7075C223.728 65.7075 229.627 62.9855 229.851 61.6208C230.075 60.2561 221.685 61.3971 222.818 60.9422C223.952 60.4873 225.54 59.3537 222.818 59.3537C220.648 59.211 218.511 58.7538 216.472 57.9965L216.778 63.3584C219.373 65.0363 223.49 67.639 227.621 70.0253C231.507 72.0683 235.508 73.8836 239.605 75.4618C239.605 75.4618 244.594 70.6965 236.66 69.7867Z" fill="white"/>
<path opacity="0.5" d="M205.92 120.169L206.763 120.05C208.583 119.17 211.662 118.618 214.66 117.872C219.195 116.739 214.205 116.739 206.718 112.883C199.231 109.028 196.278 103.36 189.477 95.1942C182.675 87.0283 179.953 82.9416 181.318 82.0393C182.683 81.1369 178.596 81.1295 177.008 80.2197C175.419 79.3098 179.245 79.3173 182.452 76.1404C185.658 72.9635 176.322 76.8191 175.419 76.5953C174.517 76.3716 176.322 73.4185 176.322 73.4185L169.744 80.2197L185.621 107.439L186.531 108.118L187.575 109.61L190.558 116.023C190.677 116.247 190.759 116.433 190.811 116.56C192.184 120.192 199.343 121.087 205.92 120.169Z" fill="white"/>
<path opacity="0.5" d="M175.852 56.751C180.871 56.0053 194.861 63.9848 194.861 63.9848C187.173 58.7645 180.446 53.8724 175.845 51.665L167.366 57.631L166.784 58.1754C167.768 57.9815 171.542 57.3625 175.852 56.751Z" fill="white"/>
<path d="M201.147 120.878C196.121 120.878 191.594 119.677 190.476 116.694C190.148 115.814 187.94 112.22 185.144 107.7C173.264 88.4303 160.788 67.4301 163.167 62.3068C165.404 57.4744 172.019 53.4847 176.396 50.8447C177.511 50.211 178.59 49.5138 179.625 48.7566C179.894 48.5404 186.836 44.5432 187.209 44.394C190.446 43.089 205.271 41.2693 205.905 41.1948C206.092 41.1575 210.999 40.2775 213.557 41.1948C215.212 41.7988 226.555 50.3824 235.668 57.2805C240.605 61.0092 244.863 64.2458 246.071 65.0512C249.874 67.5867 251.232 70.9724 251.232 73.2991C251.204 73.731 251.07 74.1493 250.841 74.5164C250.612 74.8835 250.295 75.1879 249.919 75.4021C247.719 76.8936 242.909 77.4529 237.115 75.2381C233.065 73.6869 226.234 69.8612 217.33 64.1414C220.313 78.3478 224.407 97.4837 226.04 104.285C226.425 105.897 226.243 107.593 225.526 109.087C224.943 110.389 224.191 111.608 223.289 112.712C218.307 118.402 212.244 119.655 205.95 120.52C204.359 120.749 202.755 120.869 201.147 120.878ZM210.395 41.5304C208.928 41.5525 207.464 41.6846 206.017 41.9256C205.838 41.9256 190.632 43.8123 187.485 45.0801C187.075 45.2666 180.431 49.0922 180.095 49.3383C179.033 50.1186 177.925 50.8333 176.776 51.4786C172.481 54.0738 165.993 57.9964 163.845 62.6648C161.429 67.885 177.269 93.5461 185.778 107.35C188.813 112.272 190.819 115.553 191.177 116.47C192.497 119.99 199.715 120.684 205.868 119.834C212.02 118.984 217.942 117.768 222.752 112.272C223.597 111.213 224.304 110.05 224.855 108.812C225.496 107.475 225.659 105.959 225.317 104.516C223.646 97.5657 219.44 77.7662 216.413 63.5C216.398 63.4272 216.405 63.3516 216.433 63.2827C216.461 63.2138 216.508 63.1545 216.569 63.1122C216.63 63.0722 216.702 63.0508 216.774 63.0508C216.847 63.0508 216.919 63.0722 216.98 63.1122C226.212 69.0782 233.267 73.053 237.383 74.6191C242.887 76.7296 247.525 76.2299 249.494 74.8727C249.765 74.7197 249.996 74.5049 250.169 74.2457C250.341 73.9865 250.45 73.6903 250.486 73.3812C250.486 71.2483 249.218 68.1237 245.661 65.7522C244.43 64.9319 240.165 61.7028 235.22 57.9591C226.622 51.4562 214.854 42.5446 213.303 41.9778C212.364 41.671 211.382 41.5199 210.395 41.5304Z" fill="#2E353A"/>
<path d="M167.148 57.825C167.148 57.825 164.426 60.8079 163.367 62.1876C157.685 69.4884 139.601 92.8825 139.399 94.7692C139.198 96.6559 140.055 97.9237 144.478 99.624C148.9 101.324 178.484 71.6809 178.484 71.6809" fill="white"/>
<g style="mix-blend-mode:multiply" opacity="0.8">
<path d="M167.194 57.9144L166.814 58.1605C166.262 58.772 165.069 60.1069 164.144 61.2032L150.407 79.2204C150.407 79.2204 149.982 79.6977 149.311 80.4882C144.158 87.3565 139.668 93.5536 139.392 94.6573C139.392 94.6946 139.392 94.7319 139.392 94.7617C139.214 96.5441 140.079 97.9013 144.478 99.5942C145.262 99.8925 146.813 99.2213 148.849 97.9162C147.814 97.7082 146.826 97.3141 145.933 96.7529C143.434 95.1644 145.478 93.576 145.478 93.576C145.478 93.576 148.722 94.8736 151.921 95.7461C152.585 95.2465 153.278 94.7095 153.987 94.1428C153.305 93.6964 152.659 93.1977 152.055 92.6513C149.333 90.1605 147.066 87.6622 147.066 87.6622L167.858 58.6453L167.194 57.9144Z" fill="#D7D3E1"/>
</g>
<path opacity="0.5" d="M167.194 57.9144L166.814 58.1605C166.262 58.772 165.069 60.1069 164.144 61.2032L150.407 79.2204C150.407 79.2204 149.982 79.6977 149.311 80.4882C144.158 87.3565 139.668 93.5536 139.392 94.6573C139.392 94.6946 139.392 94.7319 139.392 94.7617C139.214 96.5441 140.079 97.9013 144.478 99.5942C145.262 99.8925 146.813 99.2213 148.849 97.9162C147.814 97.7082 146.826 97.3141 145.933 96.7529C143.434 95.1644 145.478 93.576 145.478 93.576C145.478 93.576 148.722 94.8736 151.921 95.7461C152.585 95.2465 153.278 94.7095 153.987 94.1428C153.305 93.6964 152.659 93.1977 152.055 92.6513C149.333 90.1605 147.066 87.6622 147.066 87.6622L167.858 58.6453L167.194 57.9144Z" fill="white"/>
<path d="M144.822 100.056C144.654 100.058 144.487 100.031 144.329 99.9745C140.213 98.386 138.766 96.9915 139.012 94.7542C139.214 92.8973 154.166 73.4259 163.055 61.9862C164.114 60.6289 166.747 57.728 166.858 57.6086C166.89 57.569 166.93 57.5363 166.975 57.5125C167.02 57.4888 167.069 57.4744 167.12 57.4704C167.17 57.4664 167.221 57.4728 167.269 57.4891C167.318 57.5055 167.362 57.5316 167.399 57.5657C167.437 57.5998 167.467 57.6413 167.489 57.6875C167.51 57.7338 167.521 57.7838 167.522 57.8347C167.523 57.8855 167.514 57.9359 167.494 57.983C167.475 58.0301 167.447 58.0727 167.41 58.1083C167.41 58.1083 164.681 61.0913 163.644 62.4485C149.281 80.9281 139.9 93.6431 139.78 94.8363C139.609 96.4247 140.347 97.6626 144.628 99.3107C147.708 100.496 166.411 83.2921 178.231 71.4422C178.301 71.372 178.397 71.3326 178.496 71.3326C178.595 71.3326 178.69 71.372 178.761 71.4422C178.831 71.5124 178.87 71.6077 178.87 71.707C178.87 71.8063 178.831 71.9015 178.761 71.9717C175.8 74.895 150.534 100.056 144.822 100.056Z" fill="#2E353A"/>
<path d="M227.01 56.4677L216.778 63.3583C218.27 63.1495 225.339 60.6438 225.339 60.6438" fill="white"/>
<path d="M216.778 63.7312C216.703 63.7324 216.63 63.71 216.568 63.6671C216.506 63.6243 216.46 63.5633 216.435 63.4926C216.403 63.415 216.4 63.3289 216.424 63.2488C216.449 63.1687 216.5 63.0994 216.569 63.0526L226.808 56.1619C226.848 56.1338 226.893 56.1141 226.941 56.1037C226.989 56.0934 227.038 56.0927 227.086 56.1018C227.134 56.1108 227.18 56.1294 227.22 56.1563C227.261 56.1833 227.296 56.2182 227.323 56.2588C227.377 56.3422 227.397 56.4436 227.377 56.5412C227.358 56.6388 227.301 56.7248 227.218 56.7809L218.829 62.4336C221.402 61.6431 225.168 60.3157 225.22 60.2933C225.319 60.2607 225.427 60.2687 225.52 60.3155C225.613 60.3624 225.683 60.4443 225.716 60.5431C225.748 60.642 225.74 60.7498 225.694 60.8428C225.647 60.9358 225.565 61.0064 225.466 61.0391C225.175 61.136 218.314 63.5597 216.83 63.7685L216.778 63.7312Z" fill="#2E353A"/>
<path d="M226.592 60.8079C226.506 60.8062 226.422 60.775 226.356 60.7193C226.29 60.6637 226.244 60.5871 226.227 60.5022C226.21 60.4053 226.231 60.3054 226.287 60.2244C226.343 60.1434 226.429 60.0878 226.525 60.0696L228.822 59.652C228.92 59.6344 229.021 59.6558 229.103 59.7115C229.185 59.7673 229.242 59.853 229.262 59.9503C229.272 59.9994 229.272 60.0498 229.261 60.0988C229.251 60.1477 229.231 60.194 229.203 60.2351C229.174 60.2761 229.138 60.311 229.095 60.3377C229.053 60.3643 229.006 60.3822 228.957 60.3903L226.66 60.8079H226.592Z" fill="#2E353A"/>
<path d="M150.787 87.5279C149.208 87.4808 147.638 87.7786 146.186 88.4004L150.787 87.5279Z" fill="white"/>
<path d="M146.186 88.7957C146.087 88.8145 145.985 88.7932 145.901 88.7365C145.818 88.6799 145.761 88.5925 145.742 88.4936C145.723 88.3947 145.744 88.2924 145.801 88.2092C145.858 88.126 145.945 88.0687 146.044 88.0499C147.55 87.4032 149.179 87.0951 150.817 87.1476C150.866 87.1513 150.914 87.1648 150.957 87.1871C151.001 87.2094 151.04 87.2401 151.072 87.2776C151.104 87.315 151.128 87.3583 151.143 87.4052C151.158 87.452 151.164 87.5013 151.16 87.5503C151.15 87.6485 151.103 87.7393 151.028 87.8033C150.953 87.8673 150.856 87.8996 150.757 87.8933C149.239 87.8493 147.73 88.1369 146.335 88.736C146.29 88.7669 146.239 88.7873 146.186 88.7957Z" fill="#2E353A"/>
<path d="M173.085 77.3038C173.085 77.3038 178.835 75.5439 180.356 74.373L173.085 77.3038Z" fill="white"/>
<path d="M173.085 77.6766C172.986 77.6904 172.886 77.6644 172.806 77.6043C172.727 77.5442 172.674 77.4548 172.66 77.3559C172.646 77.257 172.672 77.1567 172.732 77.077C172.793 76.9973 172.882 76.9447 172.981 76.9308C173.033 76.9308 178.678 75.1858 180.133 74.0672C180.211 74.007 180.31 73.9803 180.407 73.9929C180.505 74.0055 180.594 74.0563 180.655 74.1343C180.713 74.2132 180.738 74.3115 180.726 74.4088C180.713 74.5061 180.664 74.5947 180.587 74.6563C179.021 75.857 173.436 77.5722 173.197 77.6393C173.163 77.6592 173.125 77.6719 173.085 77.6766Z" fill="#2E353A"/>
<path d="M181.765 73.7913C181.765 73.7913 182.705 72.9709 183.055 72.9709L181.765 73.7913Z" fill="white"/>
<path d="M181.765 74.1642C181.711 74.1637 181.659 74.1522 181.61 74.1304C181.561 74.1086 181.517 74.077 181.482 74.0374C181.413 73.9665 181.374 73.8715 181.374 73.7727C181.374 73.6739 181.413 73.5789 181.482 73.508C181.903 73.073 182.434 72.7588 183.018 72.5981C183.117 72.5981 183.211 72.6374 183.281 72.7074C183.351 72.7773 183.391 72.8721 183.391 72.971C183.389 73.0693 183.349 73.1631 183.279 73.2326C183.21 73.3021 183.116 73.342 183.018 73.3439C182.634 73.5375 182.281 73.789 181.974 74.0896C181.914 74.136 181.841 74.1621 181.765 74.1642Z" fill="#2E353A"/>
<path d="M216.778 63.7312C216.685 63.73 216.597 63.6953 216.528 63.6336C216.459 63.5718 216.416 63.4873 216.405 63.3956L215.473 53.8128C215.468 53.7638 215.472 53.7144 215.487 53.6672C215.501 53.6201 215.524 53.5763 215.555 53.5382C215.587 53.5001 215.625 53.4685 215.668 53.4453C215.712 53.422 215.759 53.4075 215.808 53.4026C215.857 53.3977 215.907 53.4025 215.954 53.4167C216.001 53.4309 216.045 53.4543 216.083 53.4855C216.121 53.5166 216.152 53.555 216.176 53.5983C216.199 53.6417 216.213 53.6892 216.218 53.7382L217.158 63.3285C217.163 63.3771 217.158 63.4262 217.144 63.473C217.13 63.5198 217.107 63.5632 217.075 63.6008C217.044 63.6383 217.005 63.6692 216.962 63.6916C216.919 63.714 216.871 63.7275 216.822 63.7312H216.778Z" fill="#2E353A"/>
<path d="M139.378 94.866C139.378 94.866 138.058 99.9147 146.522 102.01C150.541 103.002 177.142 109.468 177.142 109.468C177.142 109.468 179.521 104.367 178.164 104.367C176.807 104.367 152.279 88.0574 152.279 88.0574" fill="white"/>
<path d="M143.329 100.899L174.174 108.774L174.994 106.82C174.994 106.82 163.375 104.494 156.119 100.854C148.863 97.2151 148.401 98.3561 145.91 96.7751C143.419 95.1942 145.455 93.5983 145.455 93.5983C145.455 93.5983 152.264 96.3202 155.895 96.544C159.527 96.7677 154.762 95.1867 152.04 92.6885C150.914 91.6593 149.87 90.6227 149.057 89.7726L139.362 94.8586C139.362 94.8586 138.422 98.5202 143.329 100.899Z" fill="#D7D3E1"/>
<path opacity="0.5" d="M143.329 100.899L174.174 108.774L174.994 106.82C174.994 106.82 163.375 104.494 156.119 100.854C148.863 97.2151 148.401 98.3561 145.91 96.7751C143.419 95.1942 145.455 93.5983 145.455 93.5983C145.455 93.5983 152.264 96.3202 155.895 96.544C159.527 96.7677 154.762 95.1867 152.04 92.6885C150.914 91.6593 149.87 90.6227 149.057 89.7726L139.362 94.8586C139.362 94.8586 138.422 98.5202 143.329 100.899Z" fill="white"/>
<path d="M177.142 109.9H177.052C177.052 109.9 150.452 103.405 146.432 102.443C143.076 101.615 140.802 100.206 139.676 98.3338C139.02 97.2968 138.785 96.0482 139.019 94.8437C139.046 94.7488 139.108 94.6677 139.193 94.6176C139.277 94.5676 139.378 94.5524 139.474 94.5753C139.569 94.6014 139.649 94.6639 139.698 94.7491C139.747 94.8342 139.76 94.9352 139.735 95.0302C139.566 96.0496 139.779 97.0955 140.332 97.9684C141.353 99.6836 143.471 100.951 146.611 101.697C150.34 102.629 173.995 108.409 176.933 109.11C177.85 107.081 178.424 105.113 178.163 104.807C176.747 104.807 156.201 91.1597 152.1 88.4005C152.017 88.3444 151.96 88.2584 151.941 88.1608C151.921 88.0632 151.941 87.9618 151.995 87.8785C152.022 87.8378 152.057 87.8029 152.098 87.776C152.138 87.749 152.184 87.7304 152.232 87.7214C152.28 87.7124 152.329 87.713 152.377 87.7234C152.425 87.7337 152.47 87.7535 152.51 87.7815C162.167 94.2173 176.978 103.86 178.178 104.046C178.3 104.048 178.419 104.08 178.526 104.138C178.632 104.197 178.723 104.28 178.79 104.382C179.409 105.359 177.94 108.685 177.47 109.684C177.441 109.747 177.395 109.801 177.337 109.839C177.279 109.877 177.211 109.898 177.142 109.9Z" fill="#2E353A"/>
<path d="M178.163 104.389C178.163 104.389 186.896 108.476 187.575 109.61C188.253 110.743 189.812 116.634 189.812 118.454C189.812 120.274 189.588 120.266 188.455 120.266C187.321 120.266 184.368 115.956 183.689 115.046C183.011 114.136 181.452 114.136 179.379 112.809C178.801 112.442 178.305 111.961 177.92 111.396C177.535 110.83 177.27 110.192 177.142 109.52L178.163 104.389Z" fill="white"/>
<path d="M188.485 120.639C187.508 120.639 185.897 118.693 183.779 115.769C183.63 115.561 183.51 115.389 183.421 115.277C182.995 114.853 182.461 114.554 181.877 114.412C180.937 114.078 180.038 113.635 179.2 113.092C178.573 112.697 178.033 112.178 177.615 111.566C177.197 110.954 176.909 110.263 176.769 109.535C176.765 109.498 176.765 109.46 176.769 109.423L177.791 104.315C177.802 104.26 177.825 104.208 177.859 104.163C177.892 104.118 177.935 104.081 177.984 104.054C178.035 104.028 178.092 104.015 178.149 104.015C178.205 104.015 178.262 104.028 178.313 104.054C179.804 104.74 187.187 108.245 187.888 109.416C188.589 110.586 190.207 116.582 190.207 118.454C190.207 120.326 189.864 120.639 188.485 120.639ZM177.522 109.505C177.655 110.117 177.909 110.696 178.269 111.208C178.629 111.72 179.087 112.156 179.618 112.488C180.409 112.998 181.258 113.413 182.146 113.726C182.864 113.913 183.513 114.301 184.018 114.845C184.107 114.956 184.234 115.128 184.383 115.344C187.112 119.118 188.112 119.908 188.485 119.908C189.469 119.908 189.469 119.908 189.469 118.469C189.469 116.709 187.918 110.915 187.232 109.811C186.799 109.065 181.765 106.53 178.41 104.941L177.522 109.505Z" fill="#2E353A"/>
<path d="M174.435 108.99C174.398 108.998 174.36 108.998 174.323 108.99C174.276 108.976 174.232 108.952 174.194 108.921C174.157 108.889 174.126 108.85 174.104 108.806C174.081 108.762 174.068 108.715 174.065 108.665C174.061 108.616 174.068 108.567 174.084 108.521L175.442 104.307C175.455 104.259 175.479 104.214 175.51 104.175C175.542 104.136 175.581 104.104 175.625 104.08C175.669 104.057 175.718 104.042 175.768 104.038C175.818 104.034 175.868 104.039 175.916 104.055C175.963 104.071 176.008 104.096 176.045 104.129C176.083 104.162 176.114 104.202 176.136 104.247C176.158 104.292 176.17 104.341 176.173 104.391C176.175 104.441 176.167 104.491 176.15 104.538L174.793 108.752C174.764 108.823 174.715 108.884 174.651 108.927C174.587 108.969 174.512 108.991 174.435 108.99Z" fill="#2E353A"/>
<path d="M240.649 72.613C240.649 72.613 238.412 80.324 237.472 84.8582C236.532 89.3923 230.216 107.544 230.216 107.544L235.66 110.944C235.66 110.944 247.681 86.0365 249.971 80.5776C252.26 75.1187 251.559 71.047 249.292 68.7799" fill="white"/>
<path d="M235.66 111.34C235.591 111.338 235.524 111.317 235.466 111.28L230.022 107.879C229.949 107.835 229.895 107.767 229.866 107.687C229.838 107.607 229.837 107.52 229.865 107.439C229.925 107.26 236.219 89.2655 237.106 84.8134C237.994 80.3613 240.276 72.613 240.276 72.531C240.303 72.4321 240.369 72.3483 240.459 72.2979C240.548 72.2476 240.654 72.2348 240.753 72.2625C240.852 72.2902 240.936 72.3561 240.986 72.4456C241.036 72.5351 241.049 72.6409 241.022 72.7398C241.022 72.8144 238.747 80.4881 237.852 84.9551C237.002 89.2133 231.521 105.008 230.678 107.41L235.518 110.43C237.009 107.29 247.532 85.4399 249.62 80.4284C251.633 75.5886 251.417 71.4795 249.023 69.0409C248.954 68.9717 248.915 68.8778 248.915 68.7799C248.915 68.682 248.954 68.5881 249.023 68.5189C249.093 68.4497 249.186 68.4108 249.284 68.4108C249.382 68.4108 249.476 68.4497 249.545 68.5189C252.17 71.1364 252.446 75.5886 250.291 80.7193C248.054 86.111 236.122 110.877 235.995 111.131C235.973 111.178 235.941 111.22 235.901 111.253C235.861 111.287 235.814 111.311 235.764 111.325L235.66 111.34Z" fill="#2E353A"/>
<path d="M231.246 104.949C231.656 104.949 236.824 107.797 236.824 107.797L231.246 104.949Z" fill="#2E353A"/>
<path d="M195.479 63.9847C194.226 63.7759 187.537 59.3909 182.943 55.8412C178.35 52.2914 175.844 51.665 175.844 51.665L172.712 53.7531C172.238 52.2269 172.388 50.575 173.129 49.1593C174.382 46.8624 178.767 44.5655 183.152 42.895C187.537 41.2245 192.549 39.8002 195.688 39.8002C198.828 39.8002 199.656 41.053 199.656 42.7235C199.656 44.394 199.656 49.6142 198.611 53.5815C197.567 57.5489 195.479 63.9847 195.479 63.9847Z" fill="white"/>
<g style="mix-blend-mode:multiply">
<path d="M193.511 42.209C193.511 42.209 191.579 47.996 189.648 49.7336C188.157 50.9843 186.542 52.0811 184.831 53.0074C184.831 53.0074 183.675 48.958 180.781 48.958C177.888 48.958 173.45 50.8895 173.45 50.8895C173.45 50.8895 173.45 49.3458 177.112 47.4143L180.781 45.4903L189.268 42.209H193.511Z" fill="#D7D3E1"/>
</g>
<path opacity="0.5" d="M193.511 42.209C193.511 42.209 191.579 47.996 189.648 49.7336C188.157 50.9843 186.542 52.0811 184.831 53.0074C184.831 53.0074 183.675 48.958 180.781 48.958C177.888 48.958 173.45 50.8895 173.45 50.8895C173.45 50.8895 173.45 49.3458 177.112 47.4143L180.781 45.4903L189.268 42.209H193.511Z" fill="white"/>
<path d="M195.48 64.3577H195.412C194.025 64.1265 187.157 59.57 182.735 56.1545C178.894 53.1715 176.523 52.2841 175.919 52.0902L172.936 54.0813C172.887 54.1107 172.833 54.1299 172.776 54.1376C172.72 54.1453 172.662 54.1414 172.608 54.1261C172.554 54.1076 172.505 54.0772 172.465 54.0371C172.425 53.9971 172.395 53.9484 172.376 53.8949C172.121 53.0899 172.028 52.2421 172.104 51.4008C172.179 50.5596 172.421 49.7419 172.816 48.9953C174.308 46.2062 179.871 43.7751 183.041 42.5595C185.531 41.6124 191.751 39.405 195.718 39.405C198.634 39.405 200.059 40.4789 200.059 42.7012C200.059 44.4164 200.058 49.6441 199 53.6562C197.941 57.6683 195.882 64.0519 195.86 64.0967C195.836 64.1773 195.785 64.2472 195.716 64.2948C195.647 64.3423 195.563 64.3645 195.48 64.3577ZM175.844 51.2922H175.934C176.038 51.2922 178.574 51.9783 183.175 55.5355C187.493 58.869 193.511 62.8364 195.234 63.515C195.681 62.113 197.359 56.8033 198.217 53.4325C199.253 49.5173 199.253 44.3642 199.253 42.6714C199.253 41.4111 198.828 40.1209 195.659 40.1209C192.959 40.1209 188.44 41.2545 183.257 43.2307C178.074 45.2069 174.457 47.4367 173.428 49.3235C172.811 50.4954 172.626 51.8471 172.906 53.1417L175.605 51.3444C175.677 51.3002 175.761 51.2817 175.844 51.2922Z" fill="#2E353A"/>
<path d="M176.887 37.481C179.334 40.179 181.051 43.4569 181.876 47.0042C183.234 52.903 191.765 59.8385 193.808 59.8385C195.852 59.8385 195.71 49.7262 195.031 46.7805C194.353 43.8348 191.631 35.8926 191.631 35.8926C191.631 35.8926 180.773 30.6723 176.887 37.481Z" fill="white"/>
<path d="M193.839 60.2112C191.646 60.2112 182.921 53.0819 181.541 47.0861C180.724 43.6091 179.041 40.395 176.649 37.7419C176.592 37.6841 176.555 37.609 176.544 37.5282C176.533 37.4474 176.549 37.3653 176.59 37.2945C180.572 30.2695 191.706 35.4972 191.818 35.5569C191.863 35.5781 191.903 35.6082 191.937 35.6454C191.97 35.6825 191.995 35.726 192.012 35.7731C192.124 36.0938 194.749 43.7601 195.427 46.6983C196.016 49.2786 196.292 57.7577 194.726 59.7339C194.625 59.8769 194.493 59.9945 194.339 60.0774C194.185 60.1602 194.014 60.206 193.839 60.2112ZM177.38 37.4287C179.772 40.1377 181.451 43.4006 182.265 46.922C183.622 52.7761 192.101 59.4655 193.839 59.4655C193.839 59.4655 193.98 59.4655 194.137 59.2641C195.405 57.6757 195.323 49.5694 194.696 46.8624C194.07 44.1553 191.713 37.2795 191.355 36.1609C190.11 35.6091 180.9 31.7536 177.38 37.4287Z" fill="#2E353A"/>
<g style="mix-blend-mode:multiply">
<path d="M193.511 42.2089C193.511 42.2089 191.579 47.9959 189.648 49.7334C188.156 50.9841 186.542 52.081 184.83 53.0073C184.83 53.0073 183.674 48.9579 180.781 48.9579C177.887 48.9579 173.45 50.8893 173.45 50.8893C173.45 50.8893 173.45 49.3457 177.112 47.4142L180.781 45.4902L189.267 42.2089H193.511Z" fill="#D7D3E1"/>
</g>
<path opacity="0.5" d="M193.511 42.2089C193.511 42.2089 191.579 47.9959 189.648 49.7334C188.156 50.9841 186.542 52.081 184.83 53.0073C184.83 53.0073 183.674 48.9579 180.781 48.9579C177.887 48.9579 173.45 50.8893 173.45 50.8893C173.45 50.8893 173.45 49.3457 177.112 47.4142L180.781 45.4902L189.267 42.2089H193.511Z" fill="white"/>
<path d="M176.888 37.4809C179.335 40.1789 181.052 43.4568 181.877 47.0041C183.234 52.9029 191.766 59.8383 193.809 59.8383C195.853 59.8383 195.711 49.726 195.032 46.7803C194.354 43.8346 191.632 35.8924 191.632 35.8924C191.632 35.8924 180.774 30.6722 176.888 37.4809Z" fill="white"/>
<path d="M193.839 60.2112C191.646 60.2112 182.921 53.0819 181.541 47.0861C180.724 43.6091 179.041 40.395 176.649 37.7419C176.592 37.6841 176.555 37.609 176.544 37.5282C176.533 37.4474 176.549 37.3653 176.59 37.2945C180.572 30.2695 191.706 35.4972 191.818 35.5569C191.863 35.5781 191.903 35.6082 191.937 35.6454C191.97 35.6825 191.995 35.726 192.012 35.7731C192.124 36.0938 194.749 43.7601 195.427 46.6983C196.016 49.2786 196.292 57.7577 194.726 59.7339C194.625 59.8769 194.493 59.9945 194.339 60.0774C194.185 60.1602 194.014 60.206 193.839 60.2112ZM177.38 37.4287C179.772 40.1377 181.451 43.4006 182.265 46.922C183.622 52.7761 192.101 59.4655 193.839 59.4655C193.839 59.4655 193.98 59.4655 194.137 59.2641C195.405 57.6757 195.323 49.5694 194.696 46.8624C194.07 44.1553 191.713 37.2795 191.355 36.1609C190.11 35.6091 180.9 31.7536 177.38 37.4287Z" fill="#2E353A"/>
<path d="M169.722 26.5484C171.322 30.8994 173.301 35.1017 175.636 39.1067C179.081 44.7669 185.733 47.9736 189.424 46.4971C193.116 45.0205 195.629 40.2552 194.645 32.8723C194.428 31.2466 193.011 30.5828 192.557 29.1436C190.923 23.9233 189.26 18.8895 188.686 16.973C187.94 14.5046 182.034 12.0436 175.882 13.7663C169.729 15.4889 168.737 20.6346 169.722 26.5484Z" fill="white"/>
<path d="M190.162 22.0291C190.162 22.0291 187.925 23.6921 182.898 22.7301C177.872 21.7681 174.412 21.9844 174.606 23.3118C174.8 24.6392 175.187 26.3917 175.187 26.3917C175.187 26.3917 169.154 21.1715 174.621 19.7844C178.558 18.7628 180.833 20.3139 181.795 20.5302C182.757 20.7464 190.162 22.0291 190.162 22.0291Z" fill="#D7D3E1"/>
<path opacity="0.5" d="M190.162 22.0291C190.162 22.0291 187.925 23.6921 182.898 22.7301C177.872 21.7681 174.412 21.9844 174.606 23.3118C174.8 24.6392 175.187 26.3917 175.187 26.3917C175.187 26.3917 169.154 21.1715 174.621 19.7844C178.558 18.7628 180.833 20.3139 181.795 20.5302C182.757 20.7464 190.162 22.0291 190.162 22.0291Z" fill="white"/>
<path d="M187.366 47.2576C183.361 47.2576 178.148 43.9838 175.314 39.3229C172.96 35.2948 170.963 31.0676 169.348 26.69C169.344 26.6703 169.344 26.65 169.348 26.6303C168.118 19.2847 170.221 14.9519 175.769 13.4008C182.205 11.5961 188.253 14.2509 189.036 16.8536C189.305 17.7559 189.782 19.3369 190.446 21.3281C191.191 23.5653 192.034 26.2723 192.899 29.0465C193.116 29.5984 193.434 30.1045 193.839 30.538C194.442 31.1711 194.846 31.967 195.002 32.8274C196.106 41.1127 192.914 45.5051 189.558 46.8475C188.86 47.1227 188.116 47.262 187.366 47.2576ZM170.087 26.4513C171.676 30.7672 173.637 34.9367 175.948 38.9127C179.416 44.6028 185.971 47.4739 189.29 46.1465C192.385 44.9085 195.323 40.7846 194.271 32.9169C194.134 32.1982 193.796 31.5334 193.294 31.0004C192.823 30.4837 192.46 29.8776 192.228 29.218C191.363 26.4513 190.49 23.7368 189.774 21.507C189.141 19.5383 188.633 17.9498 188.358 17.0326C187.731 14.9594 182.22 12.3418 176.008 14.0496C170.877 15.5261 168.946 19.5681 170.087 26.4513Z" fill="#2E353A"/>
<path d="M174.159 34.6694C174.159 34.6694 170.214 32.9468 169.968 34.6694C169.722 36.3921 171.459 37.6524 173.167 38.3982C173.593 38.6311 174.079 38.7321 174.562 38.6883C175.045 38.6444 175.505 38.4578 175.882 38.1521" fill="white"/>
<path d="M174.412 39.0545C173.933 39.0485 173.461 38.9445 173.025 38.7487C170.586 37.7047 169.371 36.2505 169.602 34.6546C169.621 34.4722 169.685 34.2973 169.788 34.1453C169.891 33.9932 170.029 33.8685 170.191 33.7821C171.377 33.1184 174.009 34.237 174.307 34.3712C174.391 34.4155 174.455 34.4901 174.486 34.5798C174.517 34.6696 174.513 34.7677 174.474 34.8543C174.435 34.9408 174.364 35.0092 174.276 35.0455C174.189 35.0819 174.09 35.0834 174.002 35.0498C173.017 34.6173 171.205 34.0729 170.549 34.4309C170.489 34.4635 170.439 34.5107 170.402 34.5681C170.366 34.6254 170.344 34.6911 170.34 34.759C170.101 36.422 172.1 37.5406 173.323 38.0627C173.682 38.2622 174.091 38.3522 174.501 38.3218C174.91 38.2913 175.302 38.1416 175.627 37.8911C175.699 37.8305 175.791 37.7992 175.885 37.8035C175.979 37.8078 176.068 37.8473 176.134 37.9142C176.2 37.9811 176.238 38.0704 176.241 38.1643C176.244 38.2582 176.211 38.3497 176.149 38.4206C175.671 38.8438 175.05 39.0703 174.412 39.0545Z" fill="#2E353A"/>
<path d="M190.26 24.9301C190.26 24.9301 185.867 23.886 187.746 29.7401C188.119 30.896 190.677 32.2458 190.677 32.2458C190.677 32.2458 190.468 34.1251 189.424 34.3339" fill="white"/>
<path d="M189.417 34.7068C189.331 34.7055 189.248 34.6753 189.182 34.6212C189.116 34.5671 189.07 34.4921 189.051 34.4085C189.041 34.36 189.042 34.3101 189.051 34.2616C189.061 34.2131 189.08 34.167 189.108 34.1261C189.136 34.0851 189.172 34.0501 189.213 34.0231C189.254 33.996 189.301 33.9775 189.349 33.9685C189.886 33.8567 190.162 32.9692 190.267 32.4771C189.581 32.0893 187.746 30.9856 187.396 29.8819C186.695 27.7043 186.754 26.1531 187.567 25.2732C188.566 24.1918 190.267 24.5871 190.341 24.602C190.437 24.625 190.52 24.685 190.572 24.7688C190.623 24.8526 190.64 24.9535 190.617 25.0494C190.607 25.0974 190.587 25.1427 190.558 25.1827C190.53 25.2227 190.494 25.2566 190.452 25.2824C190.41 25.3081 190.364 25.3252 190.315 25.3326C190.267 25.34 190.217 25.3375 190.17 25.3254C190.17 25.3254 188.813 25.0196 188.112 25.7803C187.411 26.5409 187.5 27.7789 188.112 29.6507C188.35 30.3964 189.924 31.4479 190.856 31.9401C190.921 31.9771 190.973 32.0319 191.008 32.098C191.042 32.1641 191.057 32.2388 191.05 32.313C191.05 32.5367 190.774 34.4757 189.499 34.7292L189.417 34.7068Z" fill="#2E353A"/>
<path d="M187.12 38.51C187.12 38.51 183.988 39.1365 182.735 37.6748L187.12 38.51Z" fill="white"/>
<path d="M185.62 39.0544C185.045 39.1001 184.465 39.0256 183.92 38.8356C183.374 38.6456 182.874 38.3443 182.451 37.9507C182.419 37.9135 182.395 37.8704 182.38 37.8238C182.365 37.7773 182.359 37.7282 182.363 37.6793C182.367 37.6305 182.38 37.5829 182.402 37.5393C182.424 37.4956 182.455 37.4568 182.492 37.425C182.529 37.3931 182.572 37.3689 182.619 37.3538C182.666 37.3386 182.715 37.3328 182.763 37.3366C182.812 37.3404 182.86 37.3538 182.904 37.376C182.947 37.3982 182.986 37.4288 183.018 37.466C184.114 38.7487 187.023 38.2117 187.052 38.2117C187.1 38.2009 187.149 38.1999 187.197 38.2089C187.245 38.2178 187.291 38.2365 187.331 38.2637C187.372 38.291 187.406 38.3262 187.433 38.3673C187.459 38.4084 187.477 38.4544 187.485 38.5026C187.495 38.5505 187.495 38.6 187.486 38.6481C187.476 38.6962 187.458 38.7419 187.431 38.7828C187.404 38.8237 187.369 38.8588 187.328 38.8862C187.288 38.9136 187.242 38.9328 187.194 38.9426C186.674 39.025 186.147 39.0625 185.62 39.0544Z" fill="#2E353A"/>
<path d="M182.526 28.6961C182.526 28.6961 180.229 27.8608 178.977 28.9049C178.306 29.3716 177.787 30.0251 177.485 30.7842" fill="white"/>
<path d="M177.515 31.1496H177.425C177.378 31.1374 177.333 31.116 177.294 31.0865C177.255 31.057 177.221 31.0201 177.197 30.9779C177.172 30.9356 177.155 30.8888 177.148 30.8402C177.142 30.7916 177.144 30.7422 177.157 30.6947C177.469 29.8633 178.019 29.1422 178.738 28.6215C180.14 27.4581 182.556 28.3157 182.653 28.353C182.7 28.3688 182.742 28.3939 182.779 28.4267C182.816 28.4595 182.846 28.4994 182.866 28.544C182.887 28.5886 182.899 28.6369 182.901 28.6861C182.903 28.7353 182.894 28.7843 182.877 28.8303C182.843 28.9232 182.774 28.999 182.684 29.041C182.595 29.0829 182.492 29.0876 182.399 29.054C182.399 29.054 180.289 28.3083 179.215 29.1957C178.624 29.6245 178.162 30.2075 177.88 30.8811C177.856 30.9591 177.808 31.0274 177.742 31.0757C177.676 31.1241 177.596 31.15 177.515 31.1496Z" fill="#2E353A"/>
<path d="M182.467 32.2682C182.765 32.9618 182.705 33.6478 182.332 33.8045C181.959 33.9611 181.422 33.536 181.124 32.8424C180.826 32.1489 180.893 31.4703 181.266 31.3062C181.639 31.1421 182.176 31.597 182.467 32.2682Z" fill="#2E353A"/>
<path d="M189.976 28.6141C190.275 29.3001 190.207 29.9862 189.842 30.1503C189.477 30.3144 188.925 29.8744 188.634 29.1883C188.343 28.5022 188.395 27.8087 188.768 27.6521C189.141 27.4954 189.678 27.928 189.976 28.6141Z" fill="#2E353A"/>
<path d="M173.062 35.6613C173.062 35.6613 175.553 33.8492 175.098 32.2607C174.643 30.6723 173.741 30.6723 174.651 29.7699C175.561 28.8676 176.232 28.4052 176.008 27.048C175.784 25.6907 172.153 23.4162 173.286 22.0589C174.42 20.7017 173.965 19.0759 183.264 21.3728C192.564 23.6697 198.462 20.0156 195.74 16.615C193.018 13.2144 190.751 12.7595 190.751 12.7595C190.751 12.7595 195.972 10.5222 191.661 8.21788C187.351 5.91353 177.596 5.98064 172.153 10.2612C166.709 14.5418 167.842 18.1736 167.842 18.1736C167.842 18.1736 164.896 18.6285 164.665 23.1701C164.434 27.7117 173.062 35.6613 173.062 35.6613Z" fill="#2E353A"/>
<path d="M187.903 20.4705C185.921 20.3873 183.969 19.953 182.139 19.1878C180.704 18.576 179.176 18.2129 177.619 18.1139C174.017 18.1139 173.272 20.1573 173.242 20.2468C173.232 20.2786 173.215 20.3081 173.194 20.3334C173.172 20.3587 173.145 20.3793 173.115 20.3939C173.085 20.4086 173.052 20.4169 173.019 20.4186C172.986 20.4202 172.952 20.415 172.921 20.4034C172.889 20.3932 172.86 20.3768 172.834 20.3552C172.808 20.3335 172.787 20.307 172.772 20.2772C172.757 20.2474 172.748 20.2149 172.745 20.1815C172.743 20.1481 172.747 20.1145 172.757 20.0827C172.794 19.9857 173.63 17.5994 177.619 17.5994C179.235 17.695 180.823 18.0709 182.31 18.7105C184.629 19.5383 187.038 20.3959 190.066 19.7247C191.706 19.3593 192.668 18.7702 192.907 17.9871C193.22 16.9804 192.251 15.9289 192.243 15.914C192.196 15.8665 192.169 15.8021 192.169 15.735C192.169 15.6679 192.196 15.6035 192.243 15.556C192.293 15.5099 192.358 15.4843 192.426 15.4843C192.494 15.4843 192.559 15.5099 192.609 15.556C192.654 15.6082 193.787 16.8387 193.392 18.1288C193.086 19.1058 192.005 19.8068 190.17 20.2169C189.426 20.3816 188.666 20.4666 187.903 20.4705Z" fill="white"/>
<path d="M171.265 19.8441C171.197 19.8383 171.134 19.8063 171.09 19.7547C171.045 19.7032 171.022 19.6362 171.027 19.5681C171.027 19.5159 171.467 14.594 175.829 13.4903C178.402 12.8415 181.378 13.3262 183.771 13.714C185.263 13.9601 186.598 14.1764 187.157 13.9601C187.218 13.947 187.283 13.9564 187.338 13.9867C187.393 14.0169 187.435 14.066 187.457 14.1249C187.478 14.1839 187.478 14.2486 187.456 14.3074C187.434 14.3662 187.391 14.415 187.336 14.4449C186.65 14.6984 185.345 14.4896 183.689 14.2211C181.34 13.8334 178.417 13.3635 175.956 13.9825C171.944 15.0042 171.541 19.5607 171.534 19.6054C171.532 19.6387 171.523 19.6714 171.509 19.7014C171.494 19.7314 171.474 19.7583 171.449 19.7805C171.424 19.8027 171.395 19.8197 171.363 19.8306C171.332 19.8415 171.299 19.8461 171.265 19.8441Z" fill="white"/>
<path d="M168.379 27.5402C168.329 27.5393 168.279 27.5238 168.237 27.4955C167.568 26.934 167.049 26.2145 166.727 25.402C166.406 24.5895 166.292 23.7096 166.395 22.842C166.604 19.5607 169.125 19.5234 169.155 19.5234C169.215 19.5338 169.271 19.5653 169.31 19.6124C169.35 19.6595 169.372 19.7191 169.372 19.7807C169.372 19.8423 169.35 19.9019 169.31 19.949C169.271 19.9961 169.215 20.0276 169.155 20.038C169.065 20.038 167.082 20.0828 166.917 22.8718C166.817 23.6522 166.912 24.4453 167.194 25.1797C167.477 25.914 167.938 26.5664 168.536 27.0778C168.563 27.0965 168.587 27.1205 168.605 27.1484C168.623 27.1763 168.635 27.2076 168.64 27.2404C168.646 27.2731 168.645 27.3066 168.637 27.339C168.629 27.3713 168.615 27.4017 168.595 27.4283C168.573 27.4647 168.541 27.4942 168.503 27.5139C168.465 27.5336 168.422 27.5427 168.379 27.5402Z" fill="white"/>
<path d="M169.923 25.4222C169.874 25.4222 169.826 25.4082 169.785 25.3817C169.744 25.3552 169.712 25.3175 169.692 25.2731C169.508 24.9328 169.398 24.5572 169.371 24.1714C169.344 23.7855 169.4 23.3984 169.535 23.0358C169.864 22.325 170.45 21.7653 171.176 21.4697C171.206 21.4566 171.239 21.4498 171.273 21.4498C171.306 21.4499 171.339 21.4567 171.37 21.47C171.401 21.4833 171.429 21.5026 171.451 21.527C171.474 21.5513 171.492 21.58 171.504 21.6114C171.528 21.6738 171.527 21.7432 171.5 21.8047C171.474 21.8662 171.424 21.9147 171.362 21.9396C170.768 22.1911 170.286 22.6495 170.005 23.2297C169.899 23.5275 169.858 23.8443 169.884 24.1592C169.909 24.4741 170.001 24.78 170.154 25.0568C170.182 25.1192 170.184 25.1901 170.161 25.2542C170.137 25.3184 170.089 25.3707 170.027 25.3998C169.994 25.4144 169.959 25.422 169.923 25.4222Z" fill="white"/>
<path d="M170.497 29.4642C170.456 29.4634 170.415 29.4528 170.379 29.4333C170.343 29.4139 170.312 29.3861 170.288 29.3523L169.326 28.01C169.287 27.9546 169.271 27.8858 169.282 27.8187C169.293 27.7515 169.33 27.6916 169.386 27.6521C169.441 27.6125 169.51 27.5966 169.577 27.6077C169.644 27.6189 169.704 27.6563 169.744 27.7117L170.706 29.0615C170.744 29.1161 170.759 29.1834 170.748 29.249C170.736 29.3145 170.7 29.3731 170.646 29.412C170.604 29.4464 170.551 29.4649 170.497 29.4642Z" fill="white"/>
</svg>
