<svg width="14" height="8" viewBox="0 0 14 8" fill="none" xmlns="http://www.w3.org/2000/svg">
<path fill-rule="evenodd" clip-rule="evenodd" d="M13.354 7.35396C13.3076 7.40052 13.2524 7.43747 13.1917 7.46267C13.1309 7.48788 13.0658 7.50085 13 7.50085C12.9343 7.50085 12.8691 7.48788 12.8084 7.46267C12.7476 7.43747 12.6925 7.40052 12.646 7.35396L7.00002 1.70696L1.35402 7.35396C1.30753 7.40045 1.25235 7.43732 1.19161 7.46248C1.13087 7.48764 1.06577 7.50059 1.00002 7.50059C0.934278 7.50059 0.869178 7.48764 0.808438 7.46248C0.747699 7.43732 0.69251 7.40045 0.646022 7.35396C0.599534 7.30747 0.562657 7.25228 0.537499 7.19154C0.51234 7.1308 0.499391 7.0657 0.499391 6.99996C0.499391 6.93422 0.51234 6.86912 0.537499 6.80838C0.562657 6.74764 0.599534 6.69245 0.646022 6.64596L6.64602 0.64596C6.69247 0.599397 6.74764 0.562455 6.80839 0.537248C6.86913 0.512041 6.93426 0.499067 7.00002 0.499067C7.06579 0.499067 7.13091 0.512041 7.19166 0.537248C7.2524 0.562455 7.30758 0.599397 7.35402 0.64596L13.354 6.64596C13.4006 6.69241 13.4375 6.74758 13.4627 6.80833C13.4879 6.86907 13.5009 6.93419 13.5009 6.99996C13.5009 7.06573 13.4879 7.13085 13.4627 7.19159C13.4375 7.25234 13.4006 7.30752 13.354 7.35396Z" fill="#2F3133" stroke="#2F3133" stroke-width="0.4"/>
</svg>
