<svg width="14" height="8" viewBox="0 0 14 8" fill="none" xmlns="http://www.w3.org/2000/svg">
<path fill-rule="evenodd" clip-rule="evenodd" d="M0.646009 0.645993C0.692455 0.59943 0.74763 0.562487 0.808375 0.537281C0.86912 0.512074 0.934242 0.4991 1.00001 0.4991C1.06578 0.4991 1.1309 0.512074 1.19164 0.537281C1.25239 0.562487 1.30756 0.59943 1.35401 0.645993L7.00001 6.29299L12.646 0.645993C12.6925 0.599505 12.7477 0.562629 12.8084 0.53747C12.8692 0.512311 12.9343 0.499362 13 0.499362C13.0658 0.499362 13.1309 0.512311 13.1916 0.53747C13.2523 0.562629 13.3075 0.599505 13.354 0.645993C13.4005 0.692481 13.4374 0.74767 13.4625 0.80841C13.4877 0.869149 13.5006 0.934249 13.5006 0.999993C13.5006 1.06574 13.4877 1.13084 13.4625 1.19158C13.4374 1.25232 13.4005 1.30751 13.354 1.35399L7.35401 7.35399C7.30756 7.40056 7.25239 7.4375 7.19164 7.46271C7.1309 7.48791 7.06578 7.50089 7.00001 7.50089C6.93424 7.50089 6.86912 7.48791 6.80838 7.46271C6.74763 7.4375 6.69245 7.40056 6.64601 7.35399L0.646009 1.35399C0.599446 1.30755 0.562503 1.25237 0.537296 1.19163C0.51209 1.13088 0.499115 1.06576 0.499115 0.999993C0.499115 0.934226 0.51209 0.869105 0.537296 0.80836C0.562503 0.747614 0.599446 0.692439 0.646009 0.645993Z" fill="#2F3133" stroke="#2F3133" stroke-width="0.4"/>
</svg>
