<svg width="20" height="21" viewBox="0 0 20 21" fill="none" xmlns="http://www.w3.org/2000/svg">
<g clip-path="url(#clip0_43_2181)">
<path d="M10 19.25C7.67936 19.25 5.45376 18.3281 3.81282 16.6872C2.17187 15.0462 1.25 12.8206 1.25 10.5C1.25 8.17936 2.17187 5.95376 3.81282 4.31282C5.45376 2.67187 7.67936 1.75 10 1.75C12.3206 1.75 14.5462 2.67187 16.1872 4.31282C17.8281 5.95376 18.75 8.17936 18.75 10.5C18.75 12.8206 17.8281 15.0462 16.1872 16.6872C14.5462 18.3281 12.3206 19.25 10 19.25ZM10 20.5C12.6522 20.5 15.1957 19.4464 17.0711 17.5711C18.9464 15.6957 20 13.1522 20 10.5C20 7.84784 18.9464 5.3043 17.0711 3.42893C15.1957 1.55357 12.6522 0.5 10 0.5C7.34784 0.5 4.8043 1.55357 2.92893 3.42893C1.05357 5.3043 0 7.84784 0 10.5C0 13.1522 1.05357 15.6957 2.92893 17.5711C4.8043 19.4464 7.34784 20.5 10 20.5Z" fill="#9089A0"/>
<path d="M6.56875 7.7325C6.56704 7.77287 6.5736 7.81316 6.58804 7.8509C6.60248 7.88863 6.62448 7.92302 6.65269 7.95194C6.68091 7.98085 6.71474 8.0037 6.75211 8.01906C6.78949 8.03442 6.8296 8.04197 6.87 8.04125H7.90125C8.07375 8.04125 8.21125 7.9 8.23375 7.72875C8.34625 6.90875 8.90875 6.31125 9.91125 6.31125C10.7687 6.31125 11.5538 6.74 11.5538 7.77125C11.5538 8.565 11.0863 8.93 10.3475 9.485C9.50625 10.0963 8.84 10.81 8.8875 11.9688L8.89125 12.24C8.89256 12.322 8.92606 12.4002 8.98453 12.4577C9.04299 12.5153 9.12173 12.5475 9.20375 12.5475H10.2175C10.3004 12.5475 10.3799 12.5146 10.4385 12.456C10.4971 12.3974 10.53 12.3179 10.53 12.235V12.1038C10.53 11.2063 10.8713 10.945 11.7925 10.2463C12.5538 9.6675 13.3475 9.025 13.3475 7.67625C13.3475 5.7875 11.7525 4.875 10.0063 4.875C8.4225 4.875 6.6875 5.6125 6.56875 7.7325ZM8.515 14.9362C8.515 15.6025 9.04625 16.095 9.7775 16.095C10.5387 16.095 11.0625 15.6025 11.0625 14.9362C11.0625 14.2463 10.5375 13.7613 9.77625 13.7613C9.04625 13.7613 8.515 14.2463 8.515 14.9362Z" fill="#9089A0"/>
</g>
<defs>
<clipPath id="clip0_43_2181">
<rect width="20" height="20" fill="white" transform="translate(0 0.5)"/>
</clipPath>
</defs>
</svg>
