<svg width="32" height="32" viewBox="0 0 32 32" fill="none" xmlns="http://www.w3.org/2000/svg">
<path d="M0 2C0 0.895431 0.895431 0 2 0H30C31.1046 0 32 0.895431 32 2V30C32 31.1046 31.1046 32 30 32H2C0.895431 32 0 31.1046 0 30V2Z" fill="white"/>
<path d="M20.52 22.52C20.4742 22.5691 20.419 22.6085 20.3577 22.6359C20.2963 22.6632 20.2301 22.6779 20.163 22.6791C20.0958 22.6802 20.0292 22.6679 19.9669 22.6427C19.9046 22.6176 19.8481 22.5802 19.8006 22.5327C19.7531 22.4852 19.7157 22.4287 19.6906 22.3664C19.6654 22.3041 19.6531 22.2375 19.6542 22.1703C19.6554 22.1032 19.6701 22.037 19.6974 21.9756C19.7248 21.9143 19.7642 21.8591 19.8133 21.8133L20.96 20.6667H16.8333C16.3471 20.6667 15.8808 20.4735 15.5369 20.1297C15.1931 19.7859 15 19.3196 15 18.8333V12.502C15 12.042 14.6266 11.6687 14.1666 11.6687H13.3053C13.2237 12.1484 12.97 12.5819 12.5917 12.888C12.2134 13.1941 11.7365 13.3518 11.2503 13.3315C10.7641 13.3113 10.3019 13.1144 9.95046 12.7779C9.59897 12.4413 9.38224 11.9882 9.34086 11.5033C9.29949 11.0185 9.43631 10.5351 9.7257 10.1439C10.0151 9.75269 10.4372 9.48039 10.9129 9.37802C11.3887 9.27566 11.8854 9.35026 12.3101 9.58784C12.7348 9.82542 13.0583 10.2097 13.22 10.6687H14.1666C14.6529 10.6687 15.1192 10.8618 15.463 11.2056C15.8068 11.5495 16 12.0158 16 12.502V18.8333C16 19.2933 16.3733 19.6667 16.8333 19.6667H20.96L19.8133 18.52C19.725 18.4252 19.6769 18.2999 19.6792 18.1703C19.6815 18.0408 19.7339 17.9172 19.8256 17.8256C19.9172 17.734 20.0407 17.6815 20.1703 17.6792C20.2998 17.6769 20.4252 17.725 20.52 17.8133L22.52 19.8133C22.6136 19.9071 22.6662 20.0342 22.6662 20.1667C22.6662 20.2992 22.6136 20.4262 22.52 20.52L20.52 22.52ZM10.3333 11.3333C10.3333 11.5985 10.4387 11.8529 10.6262 12.0404C10.8137 12.228 11.0681 12.3333 11.3333 12.3333C11.5985 12.3333 11.8529 12.228 12.0404 12.0404C12.2279 11.8529 12.3333 11.5985 12.3333 11.3333C12.3333 11.0681 12.2279 10.8138 12.0404 10.6262C11.8529 10.4387 11.5985 10.3333 11.3333 10.3333C11.0681 10.3333 10.8137 10.4387 10.6262 10.6262C10.4387 10.8138 10.3333 11.0681 10.3333 11.3333Z" fill="black"/>
</svg>
