<svg width="119" height="15" viewBox="0 0 119 15" fill="none" xmlns="http://www.w3.org/2000/svg">
<path d="M7.22 14.6C6.75333 14.6 6.37333 14.46 6.08 14.18C5.8 13.9 5.66 13.5267 5.66 13.06V2.94H2.42C1.43333 2.94 0.94 2.51333 0.94 1.66C0.94 0.819999 1.43333 0.399999 2.42 0.399999H12.02C13.0067 0.399999 13.5 0.819999 13.5 1.66C13.5 2.51333 13.0067 2.94 12.02 2.94H8.78V13.06C8.78 13.5267 8.64 13.9 8.36 14.18C8.08 14.46 7.7 14.6 7.22 14.6ZM20.5206 14.68C19.1206 14.68 17.9006 14.3867 16.8606 13.8C15.834 13.2 15.0406 12.36 14.4806 11.28C13.9206 10.1867 13.6406 8.90667 13.6406 7.44C13.6406 5.97333 13.9206 4.7 14.4806 3.62C15.0406 2.52667 15.834 1.68667 16.8606 1.1C17.9006 0.513333 19.1206 0.219999 20.5206 0.219999C21.9206 0.219999 23.134 0.513333 24.1606 1.1C25.2006 1.68667 26.0006 2.52667 26.5606 3.62C27.1206 4.7 27.4006 5.97333 27.4006 7.44C27.4006 8.90667 27.1206 10.1867 26.5606 11.28C26.0006 12.36 25.2006 13.2 24.1606 13.8C23.134 14.3867 21.9206 14.68 20.5206 14.68ZM20.5206 12.26C21.694 12.26 22.614 11.8467 23.2806 11.02C23.9606 10.1933 24.3006 9 24.3006 7.44C24.3006 5.88 23.9673 4.69333 23.3006 3.88C22.634 3.05333 21.7073 2.64 20.5206 2.64C19.334 2.64 18.4073 3.05333 17.7406 3.88C17.0873 4.69333 16.7606 5.88 16.7606 7.44C16.7606 9 17.094 10.1933 17.7606 11.02C18.4273 11.8467 19.3473 12.26 20.5206 12.26ZM31.2428 14.5C30.7761 14.5 30.4161 14.3733 30.1628 14.12C29.9095 13.8667 29.7828 13.5067 29.7828 13.04V1.86C29.7828 1.39333 29.9095 1.03333 30.1628 0.779999C30.4161 0.526666 30.7761 0.399999 31.2428 0.399999H35.2628C36.7961 0.399999 38.1161 0.679999 39.2228 1.24C40.3295 1.8 41.1761 2.60667 41.7628 3.66C42.3495 4.71333 42.6428 5.97333 42.6428 7.44C42.6428 8.90667 42.3495 10.1733 41.7628 11.24C41.1895 12.2933 40.3495 13.1 39.2428 13.66C38.1361 14.22 36.8095 14.5 35.2628 14.5H31.2428ZM35.0428 11.98C38.0428 11.98 39.5428 10.4667 39.5428 7.44C39.5428 4.42667 38.0428 2.92 35.0428 2.92H32.9028V11.98H35.0428ZM51.5167 14.68C50.1167 14.68 48.8967 14.3867 47.8567 13.8C46.8301 13.2 46.0367 12.36 45.4767 11.28C44.9167 10.1867 44.6367 8.90667 44.6367 7.44C44.6367 5.97333 44.9167 4.7 45.4767 3.62C46.0367 2.52667 46.8301 1.68667 47.8567 1.1C48.8967 0.513333 50.1167 0.219999 51.5167 0.219999C52.9167 0.219999 54.1301 0.513333 55.1567 1.1C56.1967 1.68667 56.9967 2.52667 57.5567 3.62C58.1167 4.7 58.3967 5.97333 58.3967 7.44C58.3967 8.90667 58.1167 10.1867 57.5567 11.28C56.9967 12.36 56.1967 13.2 55.1567 13.8C54.1301 14.3867 52.9167 14.68 51.5167 14.68ZM51.5167 12.26C52.6901 12.26 53.6101 11.8467 54.2767 11.02C54.9567 10.1933 55.2967 9 55.2967 7.44C55.2967 5.88 54.9634 4.69333 54.2967 3.88C53.6301 3.05333 52.7034 2.64 51.5167 2.64C50.3301 2.64 49.4034 3.05333 48.7367 3.88C48.0834 4.69333 47.7567 5.88 47.7567 7.44C47.7567 9 48.0901 10.1933 48.7567 11.02C49.4234 11.8467 50.3434 12.26 51.5167 12.26ZM71.6789 6.72C72.0522 6.72 72.3456 6.82667 72.5589 7.04C72.7856 7.24 72.8989 7.52 72.8989 7.88V11.78C72.8989 12.3133 72.8522 12.7267 72.7589 13.02C72.6789 13.3133 72.5322 13.5467 72.3189 13.72C72.1056 13.8933 71.7856 14.04 71.3589 14.16C70.8389 14.32 70.2389 14.4467 69.5589 14.54C68.8922 14.6333 68.2589 14.68 67.6589 14.68C66.1656 14.68 64.8722 14.3933 63.7789 13.82C62.6856 13.2333 61.8456 12.4 61.2589 11.32C60.6722 10.2267 60.3789 8.93333 60.3789 7.44C60.3789 5.97333 60.6656 4.7 61.2389 3.62C61.8256 2.52667 62.6589 1.68667 63.7389 1.1C64.8189 0.513333 66.0789 0.219999 67.5189 0.219999C69.3722 0.219999 70.9056 0.699999 72.1189 1.66C72.3189 1.82 72.4589 1.98 72.5389 2.14C72.6189 2.3 72.6589 2.5 72.6589 2.74C72.6589 3.08667 72.5589 3.38667 72.3589 3.64C72.1722 3.88 71.9456 4 71.6789 4C71.5056 4 71.3456 3.97333 71.1989 3.92C71.0656 3.86667 70.8989 3.78 70.6989 3.66C70.1389 3.31333 69.6256 3.06667 69.1589 2.92C68.6922 2.77333 68.1789 2.7 67.6189 2.7C64.8989 2.7 63.5389 4.28 63.5389 7.44C63.5389 9.06667 63.8922 10.28 64.5989 11.08C65.3056 11.88 66.3722 12.28 67.7989 12.28C68.5722 12.28 69.3389 12.18 70.0989 11.98V8.88H68.2589C67.8722 8.88 67.5722 8.78667 67.3589 8.6C67.1456 8.41333 67.0389 8.14667 67.0389 7.8C67.0389 7.45333 67.1456 7.18667 67.3589 7C67.5722 6.81333 67.8722 6.72 68.2589 6.72H71.6789ZM87.1045 12.52C87.3045 12.8133 87.4045 13.1 87.4045 13.38C87.4045 13.7533 87.2512 14.06 86.9445 14.3C86.6512 14.54 86.3045 14.66 85.9045 14.66C85.6512 14.66 85.4045 14.6 85.1645 14.48C84.9245 14.36 84.7245 14.1733 84.5645 13.92L81.9245 10C81.6979 9.65333 81.4579 9.40667 81.2045 9.26C80.9512 9.1 80.6312 9.02 80.2445 9.02H78.6245V13.06C78.6245 13.54 78.4845 13.92 78.2045 14.2C77.9379 14.48 77.5712 14.62 77.1045 14.62C76.6245 14.62 76.2445 14.48 75.9645 14.2C75.6845 13.92 75.5445 13.54 75.5445 13.06V1.86C75.5445 1.39333 75.6712 1.03333 75.9245 0.779999C76.1779 0.526666 76.5379 0.399999 77.0045 0.399999H82.0245C83.6779 0.399999 84.9245 0.766666 85.7645 1.5C86.6179 2.22 87.0445 3.26667 87.0445 4.64C87.0445 5.72 86.7445 6.62 86.1445 7.34C85.5445 8.06 84.6979 8.53333 83.6045 8.76C84.0045 8.84 84.3579 9 84.6645 9.24C84.9845 9.46667 85.2912 9.8 85.5845 10.24L87.1045 12.52ZM81.5645 6.66C82.4579 6.66 83.1045 6.50667 83.5045 6.2C83.9045 5.88 84.1045 5.38667 84.1045 4.72C84.1045 4.04 83.9045 3.54667 83.5045 3.24C83.1045 2.93333 82.4579 2.78 81.5645 2.78H78.5845V6.66H81.5645ZM102.513 12.6C102.619 12.84 102.673 13.0533 102.673 13.24C102.673 13.6133 102.519 13.9333 102.213 14.2C101.919 14.4533 101.579 14.58 101.193 14.58C100.939 14.58 100.699 14.5133 100.473 14.38C100.246 14.2333 100.073 14.02 99.9527 13.74L98.8927 11.38H92.1127L91.0527 13.74C90.9327 14.02 90.7593 14.2333 90.5327 14.38C90.3193 14.5133 90.0793 14.58 89.8127 14.58C89.426 14.58 89.0793 14.4533 88.7727 14.2C88.466 13.9333 88.3127 13.6133 88.3127 13.24C88.3127 13.0533 88.366 12.84 88.4727 12.6L93.8727 1.26C94.0193 0.939999 94.2393 0.699999 94.5327 0.54C94.826 0.366666 95.1393 0.279999 95.4727 0.279999C95.8193 0.279999 96.1393 0.366666 96.4327 0.54C96.726 0.713332 96.9527 0.953332 97.1127 1.26L102.513 12.6ZM97.8327 9.02L95.5127 3.82L93.1727 9.02H97.8327ZM116.912 0.299999C117.352 0.299999 117.706 0.446666 117.972 0.74C118.252 1.02 118.392 1.38667 118.392 1.84V13.2C118.392 13.64 118.266 13.9867 118.012 14.24C117.759 14.4933 117.426 14.62 117.012 14.62C116.612 14.62 116.286 14.4933 116.032 14.24C115.779 13.9867 115.652 13.64 115.652 13.2V6.14L112.812 11.48C112.626 11.8267 112.419 12.08 112.192 12.24C111.979 12.4 111.719 12.48 111.412 12.48C111.119 12.48 110.859 12.4 110.632 12.24C110.406 12.08 110.199 11.8267 110.012 11.48L107.172 6.24V13.2C107.172 13.6267 107.046 13.9733 106.792 14.24C106.539 14.4933 106.206 14.62 105.792 14.62C105.392 14.62 105.066 14.4933 104.812 14.24C104.559 13.9867 104.432 13.64 104.432 13.2V1.84C104.432 1.38667 104.566 1.02 104.832 0.74C105.112 0.446666 105.472 0.299999 105.912 0.299999C106.552 0.299999 107.039 0.639999 107.372 1.32L111.432 9.02L115.472 1.32C115.832 0.639999 116.312 0.299999 116.912 0.299999Z" fill="white"/>
</svg>
