<svg width="259" height="33" viewBox="0 0 259 33" fill="none" xmlns="http://www.w3.org/2000/svg">
<path d="M14.6916 32.2191C13.669 32.2191 12.8362 31.9123 12.1935 31.2988C11.5799 30.6852 11.2731 29.8671 11.2731 28.8445V6.66828H4.17321C2.0111 6.66828 0.930044 5.73331 0.930044 3.86338C0.930044 2.02266 2.0111 1.10231 4.17321 1.10231H25.2099C27.372 1.10231 28.4531 2.02266 28.4531 3.86338C28.4531 5.73331 27.372 6.66828 25.2099 6.66828H18.11V28.8445C18.11 29.8671 17.8033 30.6852 17.1897 31.2988C16.5761 31.9123 15.7434 32.2191 14.6916 32.2191ZM43.8376 32.3944C40.7697 32.3944 38.0963 31.7516 35.8173 30.4661C33.5676 29.1513 31.8291 27.3106 30.602 24.9439C29.3748 22.5481 28.7612 19.7432 28.7612 16.5292C28.7612 13.3153 29.3748 10.525 30.602 8.15838C31.8291 5.76253 33.5676 3.92181 35.8173 2.63624C38.0963 1.35066 40.7697 0.707869 43.8376 0.707869C46.9054 0.707869 49.5642 1.35066 51.814 2.63624C54.093 3.92181 55.846 5.76253 57.0732 8.15838C58.3003 10.525 58.9139 13.3153 58.9139 16.5292C58.9139 19.7432 58.3003 22.5481 57.0732 24.9439C55.846 27.3106 54.093 29.1513 51.814 30.4661C49.5642 31.7516 46.9054 32.3944 43.8376 32.3944ZM43.8376 27.0914C46.4087 27.0914 48.4247 26.1857 49.8856 24.3742C51.3757 22.5627 52.1208 19.9477 52.1208 16.5292C52.1208 13.1108 51.3903 10.5104 49.9295 8.72812C48.4686 6.91662 46.4379 6.01088 43.8376 6.01088C41.2372 6.01088 39.2066 6.91662 37.7457 8.72812C36.314 10.5104 35.5982 13.1108 35.5982 16.5292C35.5982 19.9477 36.3286 22.5627 37.7895 24.3742C39.2504 26.1857 41.2664 27.0914 43.8376 27.0914ZM67.3334 32C66.3108 32 65.5219 31.7224 64.9667 31.1673C64.4116 30.6122 64.134 29.8233 64.134 28.8007V4.30164C64.134 3.27902 64.4116 2.49015 64.9667 1.93501C65.5219 1.37988 66.3108 1.10231 67.3334 1.10231H76.1425C79.5025 1.10231 82.3951 1.71588 84.8202 2.94302C87.2452 4.17016 89.1005 5.93783 90.3861 8.24603C91.6717 10.5542 92.3145 13.3153 92.3145 16.5292C92.3145 19.7432 91.6717 22.5189 90.3861 24.8563C89.1298 27.1645 87.289 28.9321 84.864 30.1593C82.4389 31.3864 79.5318 32 76.1425 32H67.3334ZM75.6604 26.4779C82.2344 26.4779 85.5214 23.1617 85.5214 16.5292C85.5214 9.92605 82.2344 6.62445 75.6604 6.62445H70.971V26.4779H75.6604ZM111.76 32.3944C108.692 32.3944 106.019 31.7516 103.74 30.4661C101.49 29.1513 99.7516 27.3106 98.5245 24.9439C97.2974 22.5481 96.6838 19.7432 96.6838 16.5292C96.6838 13.3153 97.2974 10.525 98.5245 8.15838C99.7516 5.76253 101.49 3.92181 103.74 2.63624C106.019 1.35066 108.692 0.707869 111.76 0.707869C114.828 0.707869 117.487 1.35066 119.737 2.63624C122.016 3.92181 123.769 5.76253 124.996 8.15838C126.223 10.525 126.836 13.3153 126.836 16.5292C126.836 19.7432 126.223 22.5481 124.996 24.9439C123.769 27.3106 122.016 29.1513 119.737 30.4661C117.487 31.7516 114.828 32.3944 111.76 32.3944ZM111.76 27.0914C114.331 27.0914 116.347 26.1857 117.808 24.3742C119.298 22.5627 120.043 19.9477 120.043 16.5292C120.043 13.1108 119.313 10.5104 117.852 8.72812C116.391 6.91662 114.36 6.01088 111.76 6.01088C109.16 6.01088 107.129 6.91662 105.668 8.72812C104.237 10.5104 103.521 13.1108 103.521 16.5292C103.521 19.9477 104.251 22.5627 105.712 24.3742C107.173 26.1857 109.189 27.0914 111.76 27.0914ZM155.942 14.9515C156.76 14.9515 157.403 15.1852 157.87 15.6527C158.367 16.091 158.615 16.7045 158.615 17.4934V26.0396C158.615 27.2083 158.513 28.114 158.309 28.7568C158.133 29.3996 157.812 29.9109 157.344 30.2908C156.877 30.6706 156.176 30.992 155.241 31.2549C154.101 31.6056 152.787 31.8831 151.296 32.0877C149.836 32.2922 148.448 32.3944 147.133 32.3944C143.861 32.3944 141.026 31.7663 138.631 30.5099C136.235 29.2243 134.394 27.3982 133.108 25.0316C131.823 22.6357 131.18 19.8016 131.18 16.5292C131.18 13.3153 131.808 10.525 133.065 8.15838C134.35 5.76253 136.176 3.92181 138.543 2.63624C140.91 1.35066 143.671 0.707869 146.826 0.707869C150.887 0.707869 154.247 1.75971 156.906 3.86338C157.344 4.21399 157.651 4.5646 157.827 4.91521C158.002 5.26583 158.09 5.70409 158.09 6.23001C158.09 6.98967 157.87 7.64707 157.432 8.2022C157.023 8.72812 156.526 8.99108 155.942 8.99108C155.562 8.99108 155.212 8.93264 154.89 8.81577C154.598 8.6989 154.233 8.50899 153.795 8.24603C152.567 7.48637 151.442 6.94584 150.42 6.62445C149.397 6.30305 148.272 6.14236 147.045 6.14236C141.085 6.14236 138.105 9.60465 138.105 16.5292C138.105 20.0938 138.879 22.7526 140.427 24.5057C141.976 26.2587 144.313 27.1353 147.44 27.1353C149.134 27.1353 150.814 26.9161 152.48 26.4779V19.6847H148.448C147.6 19.6847 146.943 19.4802 146.475 19.0712C146.008 18.6621 145.774 18.0778 145.774 17.3181C145.774 16.5585 146.008 15.9741 146.475 15.5651C146.943 15.156 147.6 14.9515 148.448 14.9515H155.942ZM189.745 27.6612C190.183 28.304 190.402 28.9321 190.402 29.5457C190.402 30.3638 190.066 31.0358 189.394 31.5617C188.751 32.0877 187.992 32.3506 187.115 32.3506C186.56 32.3506 186.019 32.2191 185.493 31.9562C184.967 31.6932 184.529 31.2842 184.179 30.729L178.394 22.139C177.897 21.3794 177.371 20.8388 176.816 20.5175C176.261 20.1668 175.559 19.9915 174.712 19.9915H171.162V28.8445C171.162 29.8963 170.855 30.729 170.242 31.3426C169.657 31.9562 168.854 32.263 167.831 32.263C166.779 32.263 165.947 31.9562 165.333 31.3426C164.72 30.729 164.413 29.8963 164.413 28.8445V4.30164C164.413 3.27902 164.69 2.49015 165.246 1.93501C165.801 1.37988 166.59 1.10231 167.612 1.10231H178.613C182.236 1.10231 184.967 1.90579 186.808 3.51277C188.678 5.09052 189.613 7.38411 189.613 10.3935C189.613 12.7602 188.956 14.7324 187.641 16.3101C186.326 17.8879 184.471 18.9251 182.075 19.4218C182.951 19.5971 183.726 19.9477 184.398 20.4736C185.099 20.9703 185.771 21.7008 186.414 22.665L189.745 27.6612ZM177.605 14.82C179.562 14.82 180.979 14.484 181.856 13.812C182.732 13.1108 183.171 12.0297 183.171 10.5688C183.171 9.07873 182.732 7.99768 181.856 7.32567C180.979 6.65367 179.562 6.31766 177.605 6.31766H171.074V14.82H177.605ZM223.509 27.8365C223.743 28.3624 223.859 28.8299 223.859 29.2389C223.859 30.057 223.523 30.7582 222.851 31.3426C222.209 31.8977 221.464 32.1753 220.616 32.1753C220.061 32.1753 219.535 32.0292 219.038 31.737C218.542 31.4156 218.162 30.9482 217.899 30.3346L215.576 25.1631H200.719L198.396 30.3346C198.133 30.9482 197.753 31.4156 197.257 31.737C196.789 32.0292 196.263 32.1753 195.679 32.1753C194.832 32.1753 194.072 31.8977 193.4 31.3426C192.728 30.7582 192.392 30.057 192.392 29.2389C192.392 28.8299 192.509 28.3624 192.743 27.8365L204.576 2.98685C204.897 2.28562 205.379 1.75971 206.022 1.40909C206.665 1.02926 207.351 0.839349 208.082 0.839349C208.842 0.839349 209.543 1.02926 210.186 1.40909C210.828 1.78892 211.325 2.31484 211.676 2.98685L223.509 27.8365ZM213.253 19.9915L208.17 8.59664L203.042 19.9915H213.253ZM255.063 0.883175C256.027 0.883175 256.801 1.20457 257.386 1.84736C257.999 2.46093 258.306 3.26442 258.306 4.25782V29.1513C258.306 30.1155 258.028 30.8751 257.473 31.4303C256.918 31.9854 256.188 32.263 255.282 32.263C254.405 32.263 253.69 31.9854 253.135 31.4303C252.579 30.8751 252.302 30.1155 252.302 29.1513V13.6805L246.078 25.3822C245.669 26.1419 245.217 26.697 244.72 27.0476C244.252 27.3982 243.683 27.5735 243.011 27.5735C242.368 27.5735 241.798 27.3982 241.301 27.0476C240.805 26.697 240.352 26.1419 239.943 25.3822L233.719 13.8997V29.1513C233.719 30.0862 233.442 30.8459 232.887 31.4303C232.332 31.9854 231.601 32.263 230.695 32.263C229.819 32.263 229.103 31.9854 228.548 31.4303C227.993 30.8751 227.715 30.1155 227.715 29.1513V4.25782C227.715 3.26442 228.007 2.46093 228.592 1.84736C229.205 1.20457 229.994 0.883175 230.958 0.883175C232.361 0.883175 233.427 1.62823 234.158 3.11833L243.054 19.9915L251.907 3.11833C252.696 1.62823 253.748 0.883175 255.063 0.883175Z" fill="#2F3133"/>
</svg>
