<svg width="32" height="32" viewBox="0 0 32 32" fill="none" xmlns="http://www.w3.org/2000/svg">
<path d="M0 2C0 0.895431 0.895431 0 2 0H30C31.1046 0 32 0.895431 32 2V30C32 31.1046 31.1046 32 30 32H2C0.895431 32 0 31.1046 0 30V2Z" fill="white"/>
<path d="M21.5292 19.793C21.2282 19.1194 20.7914 18.5075 20.2431 17.9915C19.6964 17.4739 19.0489 17.0613 18.3362 16.7764C18.3298 16.7734 18.3234 16.7719 18.317 16.7688C19.3111 16.0905 19.9574 14.9854 19.9574 13.7387C19.9574 11.6734 18.1862 10 16 10C13.8138 10 12.0426 11.6734 12.0426 13.7387C12.0426 14.9854 12.6889 16.0905 13.683 16.7704C13.6766 16.7734 13.6702 16.7749 13.6638 16.7779C12.949 17.0628 12.3075 17.4714 11.7569 17.993C11.2091 18.5094 10.7724 19.1212 10.4708 19.7945C10.1745 20.4536 10.0147 21.1604 10 21.8764C9.99961 21.8925 10.0026 21.9085 10.0088 21.9235C10.0151 21.9384 10.0244 21.9521 10.0363 21.9636C10.0482 21.9751 10.0624 21.9843 10.0781 21.9905C10.0938 21.9968 10.1107 22 10.1277 22H11.0851C11.1554 22 11.2112 21.9472 11.2128 21.8824C11.2447 20.7186 11.7394 19.6286 12.6139 18.8025C13.5186 17.9477 14.7202 17.4774 16 17.4774C17.2798 17.4774 18.4814 17.9477 19.3861 18.8025C20.2606 19.6286 20.7553 20.7186 20.7872 21.8824C20.7888 21.9487 20.8446 22 20.9149 22H21.8723C21.8893 22 21.9062 21.9968 21.9219 21.9905C21.9376 21.9843 21.9518 21.9751 21.9637 21.9636C21.9756 21.9521 21.9849 21.9384 21.9912 21.9235C21.9974 21.9085 22.0004 21.8925 22 21.8764C21.984 21.1558 21.826 20.4548 21.5292 19.793ZM16 16.3317C15.2676 16.3317 14.5782 16.0618 14.0596 15.5719C13.541 15.0819 13.2553 14.4307 13.2553 13.7387C13.2553 13.0467 13.541 12.3955 14.0596 11.9055C14.5782 11.4156 15.2676 11.1457 16 11.1457C16.7324 11.1457 17.4218 11.4156 17.9404 11.9055C18.459 12.3955 18.7447 13.0467 18.7447 13.7387C18.7447 14.4307 18.459 15.0819 17.9404 15.5719C17.4218 16.0618 16.7324 16.3317 16 16.3317Z" fill="#2F3133"/>
</svg>
