<svg width="36" height="36" viewBox="0 0 36 36" fill="none" xmlns="http://www.w3.org/2000/svg">
<path fill-rule="evenodd" clip-rule="evenodd" d="M35.0374 0.928347C35.0805 1.13844 35.061 1.35657 34.9813 1.55568L28.5432 17.6488C27.1603 17.486 25.7587 17.618 24.4305 18.0359C23.1023 18.4539 21.8777 19.1484 20.8373 20.0737C19.7968 20.9991 18.9641 22.1343 18.394 23.4046C17.8239 24.6749 17.5293 26.0516 17.5296 27.444C17.5296 28.5397 17.5296 30.731 15.8379 28.2329L12.3537 22.7589L1.40798 15.7949L1.40579 15.7905L0.507345 15.2208C0.336644 15.1128 0.199105 14.9598 0.10992 14.7786C0.0207345 14.5974 -0.0166253 14.395 0.00196712 14.1939C0.0205595 13.9928 0.0943805 13.8007 0.215276 13.6389C0.336171 13.4771 0.499435 13.3519 0.687034 13.2771L1.67751 12.8826H1.6797L33.5569 0.131319C33.756 0.0516192 33.9742 0.0321088 34.1843 0.0752066C34.3943 0.118304 34.5872 0.222115 34.7388 0.373769C34.8905 0.525423 34.9943 0.718251 35.0374 0.928347ZM14.5428 22.1191L30.9646 5.69729H30.9668L31.9967 3.1159L29.4153 4.14802L12.9935 20.5698L13.7342 21.0409C13.8701 21.1273 13.9853 21.2425 14.0717 21.3784L14.5428 22.1191Z" fill="#2F3133"/>
<path fill-rule="evenodd" clip-rule="evenodd" d="M32.8137 32.8671C34.2521 31.4288 35.0601 29.478 35.0601 27.4439C35.0601 25.4098 34.2521 23.459 32.8137 22.0206C31.3754 20.5823 29.4246 19.7743 27.3905 19.7743C25.3564 19.7743 23.4056 20.5823 21.9672 22.0206C20.5289 23.459 19.7208 25.4098 19.7208 27.4439C19.7208 29.478 20.5289 31.4288 21.9672 32.8671C23.4056 34.3055 25.3564 35.1135 27.3905 35.1135C29.4246 35.1135 31.3754 34.3055 32.8137 32.8671ZM30.2902 23.6206C30.4326 23.6417 30.5694 23.6907 30.6928 23.7647C30.8163 23.8386 30.924 23.9361 31.0098 24.0517C31.0955 24.1673 31.1577 24.2986 31.1927 24.4382C31.2277 24.5778 31.2348 24.7229 31.2137 24.8653C31.1926 25.0076 31.1437 25.1445 31.0697 25.2679L28.1443 30.1458C28.0157 30.3601 27.84 30.5423 27.6305 30.6784C27.4209 30.8146 27.1831 30.9012 26.935 30.9316C26.687 30.962 26.4353 30.9355 26.199 30.854C25.9628 30.7725 25.7482 30.6382 25.5717 30.4613L23.8756 28.7675C23.6699 28.5617 23.5543 28.2827 23.5543 27.9917C23.5543 27.7008 23.6699 27.4217 23.8756 27.216C24.0813 27.0103 24.3604 26.8947 24.6513 26.8947C24.9423 26.8947 25.2213 27.0103 25.4271 27.216L26.6257 28.4146L29.1896 24.1416C29.2635 24.0181 29.361 23.9104 29.4766 23.8246C29.5922 23.7389 29.7235 23.6767 29.8631 23.6417C30.0027 23.6067 30.1478 23.5995 30.2902 23.6206Z" fill="#2F3133"/>
</svg>
