<svg width="15" height="15" viewBox="0 0 15 15" fill="none" xmlns="http://www.w3.org/2000/svg">
<path d="M3.39376 6.17749L1.67876 7.89249C0.975444 8.59581 0.580322 9.54972 0.580322 10.5444C0.580322 11.539 0.975444 12.4929 1.67876 13.1962C2.38209 13.8996 3.33599 14.2947 4.33064 14.2947C5.32529 14.2947 6.27919 13.8996 6.98251 13.1962L9.26751 10.91C9.69163 10.4858 10.0078 9.96608 10.1895 9.39442C10.3712 8.82276 10.4131 8.21586 10.3117 7.62466C10.2103 7.03345 9.96859 6.47519 9.6068 5.99674C9.24502 5.51829 8.77373 5.13361 8.23251 4.87499L7.50001 5.60749C7.42565 5.68198 7.36097 5.76556 7.30751 5.85624C7.72567 5.97645 8.10522 6.20371 8.40863 6.51556C8.71204 6.82741 8.92881 7.21304 9.03751 7.63434C9.14622 8.05564 9.14309 8.49801 9.02843 8.91772C8.91377 9.33744 8.69156 9.71997 8.38376 10.0275L6.10001 12.3125C5.63091 12.7816 4.99467 13.0451 4.33126 13.0451C3.66785 13.0451 3.03162 12.7816 2.56251 12.3125C2.09341 11.8434 1.82987 11.2071 1.82987 10.5437C1.82987 9.88033 2.09341 9.24409 2.56251 8.77499L3.55376 7.78499C3.41391 7.26089 3.35988 6.71886 3.39376 6.17749Z" fill="white"/>
<path d="M5.73251 3.83999C5.3084 4.26416 4.99222 4.7839 4.81053 5.35555C4.62883 5.92721 4.58692 6.53411 4.68831 7.12532C4.78971 7.71652 5.03144 8.27478 5.39323 8.75323C5.75501 9.23168 6.22629 9.61636 6.76751 9.87499L7.73626 8.90499C7.31245 8.79131 6.92602 8.56808 6.61581 8.25774C6.3056 7.9474 6.08253 7.56088 5.96903 7.13701C5.85553 6.71315 5.85558 6.26688 5.96919 5.84305C6.08281 5.41921 6.30597 5.03275 6.61626 4.72249L8.90001 2.43749C9.36912 1.96838 10.0054 1.70485 10.6688 1.70485C11.3322 1.70485 11.9684 1.96838 12.4375 2.43749C12.9066 2.90659 13.1702 3.54283 13.1702 4.20624C13.1702 4.86965 12.9066 5.50588 12.4375 5.97499L11.4463 6.96499C11.5863 7.48999 11.64 8.03374 11.6063 8.57374L13.3213 6.85874C14.0246 6.15541 14.4197 5.20151 14.4197 4.20686C14.4197 3.21221 14.0246 2.25831 13.3213 1.55499C12.6179 0.851665 11.664 0.456543 10.6694 0.456543C9.67474 0.456543 8.72083 0.851665 8.01751 1.55499L5.73251 3.83999Z" fill="white"/>
</svg>
