<svg width="16" height="16" viewBox="0 0 16 16" fill="none" xmlns="http://www.w3.org/2000/svg">
<path fill-rule="evenodd" clip-rule="evenodd" d="M15.9896 0.39977C16.0093 0.495646 16.0004 0.595186 15.964 0.68605L13.026 8.03005C12.395 7.95578 11.7553 8.01599 11.1492 8.20673C10.5431 8.39746 9.98426 8.7144 9.50947 9.13667C9.03467 9.55895 8.65468 10.077 8.39451 10.6567C8.13435 11.2364 7.9999 11.8646 8.00002 12.5001C8.00002 13.0001 8.00002 14.0001 7.22802 12.8601L5.63802 10.3621L0.643017 7.18405L0.642017 7.18205L0.232017 6.92205C0.154119 6.87279 0.0913535 6.80295 0.0506543 6.72025C0.00995519 6.63755 -0.00709374 6.54522 0.0013908 6.45344C0.00987534 6.36166 0.0435631 6.27401 0.098733 6.20018C0.153903 6.12635 0.228408 6.0692 0.314017 6.03505L0.766017 5.85505H0.767017L15.314 0.0360502C15.4049 -0.000320453 15.5044 -0.00922396 15.6003 0.0104435C15.6962 0.030111 15.7842 0.0774845 15.8534 0.146691C15.9226 0.215897 15.97 0.303893 15.9896 0.39977ZM6.63702 10.0701L14.131 2.57605H14.132L14.602 1.39805L13.424 1.86905L5.93002 9.36305L6.26802 9.57805C6.33004 9.61744 6.38262 9.67003 6.42202 9.73205L6.63702 10.0701Z" fill="#9089A0"/>
<path fill-rule="evenodd" clip-rule="evenodd" d="M14.9749 14.9749C15.6313 14.3185 16 13.4283 16 12.5C16 11.5717 15.6313 10.6815 14.9749 10.0251C14.3185 9.36875 13.4283 9 12.5 9C11.5717 9 10.6815 9.36875 10.0251 10.0251C9.36875 10.6815 9 11.5717 9 12.5C9 13.4283 9.36875 14.3185 10.0251 14.9749C10.6815 15.6313 11.5717 16 12.5 16C13.4283 16 14.3185 15.6313 14.9749 14.9749ZM13.8233 10.7553C13.8882 10.7649 13.9507 10.7872 14.007 10.821C14.0633 10.8547 14.1125 10.8993 14.1516 10.952C14.1908 11.0047 14.2191 11.0647 14.2351 11.1284C14.2511 11.1921 14.2543 11.2583 14.2447 11.3233C14.2351 11.3882 14.2128 11.4507 14.179 11.507L12.844 13.733C12.7853 13.8308 12.7051 13.9139 12.6095 13.9761C12.5139 14.0382 12.4053 14.0777 12.2922 14.0916C12.179 14.1055 12.0641 14.0934 11.9563 14.0562C11.8485 14.019 11.7506 13.9577 11.67 13.877L10.896 13.104C10.8021 13.0101 10.7494 12.8828 10.7494 12.75C10.7494 12.6172 10.8021 12.4899 10.896 12.396C10.9899 12.3021 11.1172 12.2494 11.25 12.2494C11.3828 12.2494 11.5101 12.3021 11.604 12.396L12.151 12.943L13.321 10.993C13.3547 10.9367 13.3993 10.8875 13.452 10.8484C13.5047 10.8092 13.5647 10.7809 13.6284 10.7649C13.6921 10.7489 13.7583 10.7457 13.8233 10.7553Z" fill="#9089A0"/>
</svg>
